<?xml version="1.0" standalone="no"?>
<!DOCTYPE svg PUBLIC "-//W3C//DTD SVG 1.1//EN" "http://www.w3.org/Graphics/SVG/1.1/DTD/svg11.dtd" >
<svg xmlns="http://www.w3.org/2000/svg" xmlns:xlink="http://www.w3.org/1999/xlink" version="1.1">
<metadata></metadata>
<defs>
<font id="sf_new_republicbold_italic" horiz-adv-x="1229" >
<font-face units-per-em="2048" ascent="1638" descent="-410" />
<missing-glyph horiz-adv-x="597" />
<glyph horiz-adv-x="0" />
<glyph horiz-adv-x="682" />
<glyph unicode=" "  horiz-adv-x="597" />
<glyph unicode="&#x09;" horiz-adv-x="597" />
<glyph unicode="&#xa0;" horiz-adv-x="597" />
<glyph unicode="!" horiz-adv-x="512" d="M150 -15l43 203h205l-43 -203h-205zM256 324l191 1058h205l-259 -1058h-137z" />
<glyph unicode="&#x22;" horiz-adv-x="768" d="M404 1178l43 204h205l-61 -290h-154l15 69h69l3 17h-120zM660 1178l43 204h205l-61 -290h-154l15 69h69l3 17h-120z" />
<glyph unicode="#" horiz-adv-x="1126" d="M309 734l37 171h166l39 136h-176l36 171h191l52 170h170l-51 -170h137l51 170h171l-52 -170h151l-36 -171h-166l-39 -136h176l-38 -171h-191l-51 -171h-171l51 171h-136l-51 -171h-171l51 171h-150zM683 905h136l39 136h-136z" />
<glyph unicode="$" horiz-adv-x="947" d="M232 382l176 46q-9 -116 75 -145l70 328q-125 52 -171 116q-58 78 -29 212q24 117 121 205q98 91 215 110l28 128h100l-27 -126q104 -15 161 -90q59 -75 54 -185l-177 -42q8 115 -74 143l-70 -329q127 -52 171 -115q58 -75 29 -210q-24 -116 -121 -207t-215 -110 l-27 -126h-101l27 124q-102 16 -160 91q-58 74 -55 182zM526 939q-21 -92 66 -144l60 282q-107 -39 -126 -138zM585 288q109 41 128 140q20 89 -68 140z" />
<glyph unicode="%" horiz-adv-x="1809" d="M282 1007q34 154 168 264q133 111 287 111q153 0 242 -111q88 -110 54 -264q-33 -153 -167 -265q-134 -111 -287 -111q-154 0 -242 111q-88 110 -55 265zM324 -15l1209 1397h242l-1208 -1397h-243zM486 1007q-13 -70 26 -121q39 -50 109 -50q69 0 131 50q63 52 76 121 q15 70 -24 120q-39 51 -109 51q-71 0 -132 -51q-60 -49 -77 -120zM1067 358q31 153 166 265q133 111 288 111q152 0 241 -111q88 -110 56 -265q-33 -154 -168 -263q-134 -110 -288 -110t-241 110t-54 263zM1271 358q-15 -71 24 -120q41 -50 110 -50t131 50q60 49 77 120 q13 70 -26 120q-39 51 -109 51q-71 0 -132 -51q-62 -50 -75 -120z" />
<glyph unicode="&#x26;" horiz-adv-x="1178" d="M241 410q50 233 274 348q-112 97 -75 266q33 156 166 265q134 110 288 110q132 0 215 -83q84 -82 91 -212l-210 -53q-9 144 -138 144q-71 0 -132 -51q-62 -50 -75 -120q-15 -70 24 -121q39 -50 109 -50h427l-43 -204h-85l-65 -308q-34 -157 -174 -265t-299 -108 q-172 0 -257 136q-79 129 -41 306zM445 410q-18 -93 14 -161q36 -78 123 -78q72 0 140 48q69 51 85 122l65 308h-136q-98 0 -184 -71t-107 -168z" />
<glyph unicode="'" horiz-adv-x="512" d="M404 1178l43 204h205l-61 -290h-154l15 69h69l3 17h-120z" />
<glyph unicode="(" horiz-adv-x="717" d="M250 234q-6 193 49 449q27 129 62 240.5t80 207.5q45 97 107.5 202t146.5 220h208q-168 -232 -256 -420q-89 -194 -144 -450q-54 -260 -47 -451q7 -185 78 -418h-208q-70 228 -76 420z" />
<glyph unicode=")" horiz-adv-x="717" d="M104 -186q169 231 256 418q45 97 80.5 209t62.5 242q55 256 48 450q-8 186 -78 420h208q70 -228 76 -422q6 -193 -49 -448q-27 -130 -62 -241.5t-80 -207.5t-107.5 -200.5t-146.5 -219.5h-208z" />
<glyph unicode="*" horiz-adv-x="922" d="M347.5 880.5q-3.5 15.5 0.5 32.5q9 42 55 73l193 55l-171 55q-32 31 -22 73q7 36 36.5 60.5t65.5 24.5q16 0 38 -8l111 -130l-2 184q27 82 102 82q72 0 69 -82l-81 -184l164 130q24 8 43 8q17 0 31 -7t23.5 -18.5t13 -27t0.5 -32.5q-11 -43 -56 -73l-191 -55l169 -55 q31 -30 24 -73q-9 -36 -39 -60.5t-66 -24.5q-16 0 -37 8l-111 130l2 -184q-28 -82 -103 -82q-71 0 -68 82l80 184l-164 -130q-24 -8 -42 -8q-17 0 -31 7t-23.5 18.5t-13 27z" />
<glyph unicode="+" horiz-adv-x="853" d="M280 597l37 171h188l39 188h171l-39 -188h188l-38 -171h-188l-39 -187h-171l40 187h-188z" />
<glyph unicode="," horiz-adv-x="512" d="M150 -15l43 203h205l-62 -289h-153l15 69h68l4 17h-120z" />
<glyph unicode="-" horiz-adv-x="853" d="M280 597l37 171h547l-38 -171h-546z" />
<glyph unicode="." horiz-adv-x="512" d="M150 -15l43 203h205l-43 -203h-205z" />
<glyph unicode="/" horiz-adv-x="744" d="M-41 -99l940 1635l180 -70l-944 -1635z" />
<glyph unicode="0" horiz-adv-x="1195" d="M241 410l116 546q39 181 197 312t340 131t286 -131q103 -130 64 -312l-116 -546q-39 -182 -197 -313q-158 -129 -340 -129q-184 0 -287 129q-103 130 -63 313zM445 410q-20 -99 35 -169t153 -70t183 70q87 71 107 169l116 546q21 97 -35 168t-152 71q-98 0 -184 -71 t-107 -168z" />
<glyph unicode="1" horiz-adv-x="512" d="M150 -15l297 1397h205l-297 -1397h-205z" />
<glyph unicode="2" horiz-adv-x="1072" d="M150 -15l39 186q45 209 233 358l334 212q180 118 212 261q17 80 -30 136q-47 57 -127 57q-77 0 -140 -54q-62 -54 -87 -132l-191 51q58 146 185 243q127 96 275 96q165 0 260 -116q95 -117 61 -281q-44 -203 -227 -350q-83 -54 -165 -106.5t-166 -106.5 q-184 -119 -218 -251h597l-43 -203h-802z" />
<glyph unicode="3" horiz-adv-x="1138" d="M174 314l208 51q4 -84 57 -140q52 -54 138 -54q98 0 183 70q87 71 107 169q20 99 -35 168q-56 71 -153 71h-102l43 204h102q69 0 131 50q62 52 77 121q14 71 -26 120q-39 51 -109 51q-132 0 -199 -144l-186 53q61 130 179 212q119 83 249 83q155 0 242 -110 q87 -109 55 -265q-37 -168 -191 -266q177 -116 128 -348q-39 -182 -197 -313q-158 -129 -341 -129q-155 0 -254 96t-106 250z" />
<glyph unicode="4" horiz-adv-x="1007" d="M46 324l538 934l177 -70l-380 -659h380l181 853h205l-297 -1397h-205l72 339h-671z" />
<glyph unicode="5" horiz-adv-x="1145" d="M225 311l207 53q5 -88 55.5 -140.5t138.5 -52.5q105 0 193 85q81 78 104 188q24 107 -24 187q-53 86 -157 86q-86 0 -160 -53q-72 -51 -116 -138l-191 56l234 800h733l-42 -204h-545l-99 -331q115 76 260 76q180 0 269 -152q82 -140 43 -327q-40 -193 -194 -333 q-161 -143 -350 -143q-159 0 -256 93q-96 94 -103 250z" />
<glyph unicode="6" horiz-adv-x="1109" d="M241 410q12 57 39 116l411 856h214l-275 -570q84 40 167 40q173 0 271 -134q97 -133 60 -308q-39 -182 -197 -313q-158 -129 -340 -129q-184 0 -287 129q-103 130 -63 313zM445 410q-20 -99 35 -169t153 -70t183 70q87 71 107 169q21 99 -34 169q-54 70 -153 70 q-100 0 -185 -70t-106 -169z" />
<glyph unicode="7" horiz-adv-x="939" d="M82 -15l812 1193h-575l43 204h898l-951 -1397h-227z" />
<glyph unicode="8" horiz-adv-x="1195" d="M241 410q50 233 274 348q-112 97 -75 266q33 156 166 265q134 110 288 110q156 0 243 -110t54 -265q-37 -169 -191 -266q178 -115 128 -348q-39 -182 -197 -313q-158 -129 -340 -129q-184 0 -287 129q-103 130 -63 313zM445 410q-20 -99 34 -169q55 -70 154 -70 q98 0 183 70q87 71 107 169q21 97 -35 168t-152 71q-100 0 -185 -70t-106 -169zM645 1024q-15 -70 24 -121q39 -50 109 -50q69 0 131 50q62 52 77 121q14 71 -25 120q-39 51 -109 51q-71 0 -132 -51q-62 -50 -75 -120z" />
<glyph unicode="9" horiz-adv-x="1109" d="M271 956q41 183 197 312q158 131 341 131q182 0 286 -131q103 -130 64 -312q-12 -57 -39 -116l-412 -855h-213l275 568q-86 -39 -168 -39q-174 0 -271 133q-98 133 -60 309zM476 956q-20 -99 34 -169q55 -70 154 -70t184 70q87 72 106 169q21 97 -35 168t-153 71 t-183 -71t-107 -168z" />
<glyph unicode=":" horiz-adv-x="512" d="M150 -15l43 203h205l-43 -203h-205zM314 751l43 205h204l-42 -205h-205z" />
<glyph unicode=";" horiz-adv-x="512" d="M150 -15l43 203h205l-62 -289h-153l15 69h68l4 17h-120zM314 751l43 205h204l-42 -205h-205z" />
<glyph unicode="&#x3c;" horiz-adv-x="657" d="M297 683l256 358h183l-256 -358l102 -359h-183z" />
<glyph unicode="=" horiz-adv-x="939" d="M256 478l36 171h631l-36 -171h-631zM305 717l38 170h632l-38 -170h-632z" />
<glyph unicode="&#x3e;" horiz-adv-x="657" d="M212 324l256 359l-103 358h183l102 -358l-256 -359h-182z" />
<glyph unicode="?" horiz-adv-x="1097" d="M150 -15l43 203h205l-43 -203h-205zM222 324l8 41q45 206 219 313q77 32 153 64t154 64q166 70 195 196q17 80 -30 136q-47 57 -127 57q-78 0 -140 -53q-60 -52 -87 -133l-192 51q60 148 186 243q127 96 275 96q165 0 260 -116q95 -117 61 -281q-35 -155 -133 -249 q-86 -82 -254 -144q-56 -18 -111 -39q-64 -24 -106 -49q-63 -41 -90 -88q-21 -35 -36 -109h-205z" />
<glyph unicode="@" horiz-adv-x="1570" d="M213 683q63 293 319 504q257 212 550 212q294 0 461 -212t104 -504q-47 -221 -179 -359q-149 -158 -359 -158q-79 0 -129 59q-48 61 -35 140q-84 -37 -168 -37q-127 0 -191 84q-64 85 -36 211q34 160 185 287q152 128 311 128q83 0 142 -40l13 29h178q-119 168 -340 168 q-211 0 -393 -151q-183 -152 -228 -361q-47 -215 78 -364q124 -148 342 -148l-43 -203q-301 0 -473 207q-172 206 -109 508zM761 652q-10 -54 16 -87t80 -33q68 0 135 55q68 56 83 125q5 25 0.5 47.5t-17 38.5t-32 25.5t-45.5 9.5q-69 0 -137 -56q-67 -55 -83 -125z M1152 415q-12 -51 22 -51q109 0 185 112q57 82 83 207q41 192 -56 336q-32 -78 -64 -154t-64 -153q-45 -108 -71.5 -181.5t-34.5 -115.5z" />
<glyph unicode="A" d="M-26 -15l804 1397h260l211 -1397h-218l-39 254h-654l-149 -254h-215zM454 444h507l-104 694z" />
<glyph unicode="B" horiz-adv-x="1451" d="M150 -15l297 1397h708q163 0 258 -119q68 -85 68 -195q0 -42 -10 -87q-38 -182 -206 -288q123 -82 124 -226q0 -39 -10 -83q-36 -164 -180 -282q-143 -117 -306 -117h-743zM398 188h537q80 0 150 58q73 59 89 138q5 22 5 42q0 54 -34 96q-46 58 -126 58h-538zM526 785 h503q80 0 150 58t87 138q5 22 5 43q0 54 -33 96q-45 58 -125 58h-504z" />
<glyph unicode="C" horiz-adv-x="1459" d="M213 683q63 293 319 504q257 212 550 212q184 0 331 -93q137 -92 208 -251l-194 -111q-51 115 -153 182q-102 69 -235 69q-211 0 -393 -151q-183 -152 -228 -361q-12 -57 -12 -110q0 -142 86 -251q118 -151 329 -151q132 0 266 70q128 65 225 179l149 -113 q-68 -79 -147 -140.5t-170 -107.5q-181 -91 -366 -91q-293 0 -461 210q-121 154 -121 351q0 74 17 154z" />
<glyph unicode="D" horiz-adv-x="1451" d="M150 -15l297 1397h529q289 0 451 -206q117 -148 117 -340q0 -73 -17 -153q-61 -289 -310 -494q-249 -204 -538 -204h-529zM398 188h324q202 0 380 146q177 144 221 349q11 55 11 105q0 137 -83 244q-114 146 -317 146h-325z" />
<glyph unicode="E" horiz-adv-x="1195" d="M150 -15l297 1397h888l-43 -204h-683l-80 -376h512l-44 -205h-512l-87 -409h682l-42 -203h-888z" />
<glyph unicode="F" horiz-adv-x="1109" d="M150 -15l297 1397h888l-43 -204h-683l-80 -376h512l-44 -205h-512l-130 -612h-205z" />
<glyph unicode="G" horiz-adv-x="1545" d="M213 683q63 293 319 504q257 212 550 212q184 0 331 -93q137 -92 208 -251l-194 -111q-50 113 -152 181q-103 70 -236 70q-211 0 -393 -151q-183 -152 -228 -361q-12 -57 -12 -110q0 -142 86 -251q118 -151 329 -151q240 0 440 194l46 215h-416l44 205h621l-170 -800 h-205l27 128q-181 -145 -430 -145q-293 0 -461 210q-121 154 -121 351q0 74 17 154z" />
<glyph unicode="H" horiz-adv-x="1365" d="M150 -15l297 1397h205l-126 -597h648l126 597h205l-297 -1397h-204l126 595h-649l-126 -595h-205z" />
<glyph unicode="I" horiz-adv-x="512" d="M150 -15l297 1397h205l-297 -1397h-205z" />
<glyph unicode="J" horiz-adv-x="896" d="M108 384h204q-6 -27 -6 -52q0 -55 28 -98q40 -63 129 -63q80 0 150 58q72 60 88 138l215 1015h205l-215 -1015q-36 -165 -179 -283q-143 -116 -307 -116q-171 0 -261 122q-62 85 -62 195q0 47 11 99z" />
<glyph unicode="K" horiz-adv-x="1237" d="M150 -15l297 1397h205l-125 -588l714 588h288l-848 -699l551 -698h-288l-439 553l-39 -33l-111 -520h-205z" />
<glyph unicode="L" horiz-adv-x="1024" d="M150 -15l297 1397h205l-254 -1194h682l-42 -203h-888z" />
<glyph unicode="M" horiz-adv-x="1707" d="M150 -15l297 1397h207l254 -1126l732 1126h207l-297 -1397h-205l189 889l-578 -889h-212l-200 889l-189 -889h-205z" />
<glyph unicode="N" horiz-adv-x="1365" d="M150 -15l297 1397h196l442 -1010l215 1010h205l-297 -1397h-196l-442 1008l-215 -1008h-205z" />
<glyph unicode="O" horiz-adv-x="1570" d="M213 683q63 293 319 504q257 212 550 212q294 0 461 -212q121 -154 121 -350q0 -74 -17 -154q-63 -294 -319 -505q-257 -210 -550 -210t-461 210q-121 154 -121 351q0 74 17 154zM418 683q-12 -57 -12 -110q0 -142 86 -251q118 -151 329 -151t393 151q185 152 228 361 q12 57 12 110q0 140 -86 251q-118 151 -329 151t-393 -151q-183 -152 -228 -361z" />
<glyph unicode="P" horiz-adv-x="1365" d="M150 -15l297 1397h743q162 0 257 -119q68 -85 68 -195q0 -42 -10 -87q-34 -165 -178 -283q-142 -118 -308 -118h-538l-126 -595h-205zM526 785h537q80 0 150 58t87 138q5 23 5 44q0 54 -33 95q-45 58 -125 58h-538z" />
<glyph unicode="Q" horiz-adv-x="1570" d="M213 683q63 293 319 504q257 212 550 212q294 0 461 -212q121 -154 121 -350q0 -74 -17 -154q-49 -235 -236 -429l200 -254l-174 -142l-200 253q-224 -143 -459 -143q-293 0 -461 210q-121 154 -121 351q0 74 17 154zM418 683q-12 -57 -12 -110q0 -142 86 -251 q118 -151 329 -151q153 0 299 85l-198 254l175 145l200 -252q114 129 145 280q12 57 12 110q0 141 -86 251q-118 151 -329 151t-393 -151q-183 -152 -228 -361z" />
<glyph unicode="R" horiz-adv-x="1365" d="M150 -15l297 1397h743q162 0 257 -119q68 -85 68 -195q0 -42 -10 -87q-30 -147 -151 -259q-121 -113 -269 -137l221 -600h-238l-216 595h-371l-126 -595h-205zM526 785h537q80 0 150 58t87 138q5 22 5 43q0 54 -34 96q-46 58 -124 58h-538z" />
<glyph unicode="S" horiz-adv-x="1097" d="M215 304l212 54q-1 -10 -1 -20q0 -67 31 -111q41 -56 120 -56q80 0 151 57q72 58 88 137q4 20 4 39q0 95 -113 154q-129 64 -208.5 109.5t-111.5 71.5q-38 31 -38 117q0 60 18 146q35 166 178 281q145 116 310 116q148 0 234 -96q83 -91 83 -236v-7l-211 -51q1 13 1 26 q0 63 -33 107q-38 53 -117 53q-81 0 -151 -57q-70 -55 -88 -136q-4 -20 -4 -39q0 -97 115 -156l251 -129q97 -78 97 -214q0 -46 -11 -99q-34 -165 -178 -281q-143 -116 -309 -116q-148 0 -235 94q-84 93 -84 235v7z" />
<glyph unicode="T" horiz-adv-x="1109" d="M276 1178l43 204h1058l-42 -204h-427l-254 -1193h-205l254 1193h-427z" />
<glyph unicode="U" horiz-adv-x="1451" d="M268 538l179 844h205l-179 -844q-9 -43 -10 -82q0 -100 61 -178q86 -107 237 -107t282 107q131 108 164 260l179 844h205l-180 -844q-50 -237 -253 -403q-205 -167 -439 -167q-235 0 -369 167q-96 120 -96 278q0 60 14 125z" />
<glyph unicode="V" d="M271 1382h215l176 -1155l666 1155h218l-805 -1397h-260z" />
<glyph unicode="W" horiz-adv-x="1792" d="M271 1382h215l176 -1155l273 474l-102 681h217l59 -382l219 382h218l-392 -682l71 -473l666 1155h218l-805 -1397h-260l-63 416l-240 -416h-260z" />
<glyph unicode="X" horiz-adv-x="1176" d="M9 -15l602 698l-306 699h243l223 -512l444 512h242l-602 -699l306 -698h-243l-225 510l-442 -510h-242z" />
<glyph unicode="Y" horiz-adv-x="1005" d="M222 1382h241l223 -512l444 512h242l-628 -730l-142 -667h-204l141 667z" />
<glyph unicode="Z" horiz-adv-x="1261" d="M51 -15l1031 1193h-763l43 204h1138l-1031 -1194h763l-42 -203h-1139z" />
<glyph unicode="[" horiz-adv-x="683" d="M114 -186l369 1739h375l-42 -205h-171l-283 -1331h170l-42 -203h-376z" />
<glyph unicode="\" horiz-adv-x="744" d="M292 1466l205 70l249 -1635l-208 -70z" />
<glyph unicode="]" horiz-adv-x="683" d="M114 -186l43 203h171l283 1331h-171l43 205h375l-368 -1739h-376z" />
<glyph unicode="^" horiz-adv-x="853" d="M381 1178l247 204h184l163 -204h-132l-143 111l-188 -111h-131z" />
<glyph unicode="_" horiz-adv-x="683" d="M-48 -152l36 169h715l-36 -169h-715z" />
<glyph unicode="`" horiz-adv-x="683" d="M481 1724h234l161 -205h-132z" />
<glyph unicode="a" horiz-adv-x="1271" d="M177 512q48 224 242 385q196 161 421 161t351 -161q92 -116 92 -266q0 -57 -13 -119l-113 -527h-205l28 126q-184 -143 -389 -143q-221 0 -341 161q-86 115 -86 262q0 58 13 121zM382 512q-8 -39 -8 -75q0 -94 57 -166q79 -100 219 -100q141 0 262 100t153 241q7 36 7 70 q0 95 -58 170q-80 101 -219 101q-140 0 -262 -101q-123 -101 -151 -240z" />
<glyph unicode="b" horiz-adv-x="1271" d="M220 512l184 870h205l-99 -469q182 145 389 145q221 0 340 -162q86 -116 86 -263q0 -58 -13 -121q-46 -224 -242 -385q-194 -159 -420 -159q-225 0 -352 159q-91 116 -91 266q0 57 13 119zM425 512q-9 -40 -9 -77q0 -92 57 -164q79 -100 220 -100t262 100t153 241 q7 36 7 70q0 95 -58 170q-80 101 -219 101q-140 0 -262 -101q-123 -101 -151 -240z" />
<glyph unicode="c" d="M176 509q50 228 243 388q194 161 421 161q112 0 223 -53l-123 -188q-74 36 -146 36q-141 0 -263 -101q-121 -101 -149 -242q-8 -39 -8 -74q0 -94 57 -166q79 -99 221 -99q144 0 263 104q118 103 150 251h206q-49 -231 -240 -395q-190 -163 -422 -163q-227 0 -354 157 q-92 114 -92 265q0 57 13 119z" />
<glyph unicode="d" horiz-adv-x="1271" d="M177 512q46 221 236 384q189 162 410 162q206 0 327 -145l99 469h205l-184 -870q-48 -224 -243 -385q-194 -159 -419 -159q-226 0 -352 159q-92 117 -92 268q0 56 13 117zM382 512q-8 -39 -8 -75q0 -94 57 -166q79 -100 219 -100q141 0 262 100t153 241q7 36 7 70 q0 95 -58 170q-80 101 -219 101q-140 0 -262 -101q-123 -101 -151 -240z" />
<glyph unicode="e" d="M177 510q48 227 241 387q194 161 420 161q166 0 284 -92q116 -91 151 -247l-822 -470q79 -78 201 -78q146 0 264 104q117 104 149 251h206q-49 -231 -240 -395q-190 -163 -422 -163q-227 0 -354 157q-92 114 -92 263q0 58 14 122zM376 467.5q-1 -22.5 1 -45.5l620 353 q-83 78 -203 78q-141 0 -263 -101q-121 -101 -149 -242q-5 -20 -6 -42.5z" />
<glyph unicode="f" horiz-adv-x="614" d="M150 -15l145 681h-85l43 204h85l12 52q39 189 211 324q172 134 364 136l-43 -204q-113 0 -208 -73q-95 -72 -119 -183l-12 -52h170l-42 -204h-171l-145 -681h-205z" />
<glyph unicode="g" horiz-adv-x="1271" d="M109 -181l196 113q76 -169 258 -169q150 0 265 100q106 94 150 246q-183 -141 -387 -141q-221 0 -341 161q-86 115 -86 262q0 58 13 121q48 225 243 385q197 161 420 161q222 0 350 -161q93 -117 93 -268q0 -56 -13 -117l-87 -410q-48 -222 -244 -382 q-195 -162 -418 -162q-139 0 -249 71q-107 70 -163 190zM382 512q-8 -39 -8 -75q0 -94 57 -166q79 -100 219 -100q141 0 262 100t153 241q7 36 7 70q0 95 -58 170q-80 101 -219 101q-140 0 -262 -101q-123 -101 -151 -240z" />
<glyph unicode="h" d="M150 -15l297 1397h205l-94 -440q151 116 316 116q182 0 276 -142q64 -93 64 -210q0 -52 -13 -109l-129 -612h-205l130 612q6 28 6 53q0 70 -44 127q-60 76 -164 76q-105 0 -196 -76q-92 -77 -114 -180l-130 -612h-205z" />
<glyph unicode="i" horiz-adv-x="512" d="M150 -15l225 1056h205l-225 -1056h-205zM404 1178l43 204h205l-43 -204h-205z" />
<glyph unicode="j" horiz-adv-x="614" d="M-90 -357l42 205q112 0 206 73q96 72 120 181l200 939h205l-200 -939q-40 -187 -213 -322q-172 -136 -360 -137zM507 1178l43 204h204l-42 -204h-205z" />
<glyph unicode="k" horiz-adv-x="1101" d="M150 -15l297 1397h205l-169 -793l550 452h288l-642 -529l417 -527h-289l-304 382l-81 -67l-67 -315h-205z" />
<glyph unicode="l" horiz-adv-x="512" d="M150 -15l297 1397h205l-297 -1397h-205z" />
<glyph unicode="m" horiz-adv-x="1655" d="M108 -15l138 646q36 173 181 300t319 127q188 0 278 -136q148 136 336 136q173 0 264 -127q65 -91 65 -206q0 -45 -10 -94l-138 -646h-205l139 646q4 23 4 45q0 60 -32 110q-43 67 -131 67q-96 0 -164 -62q-67 -61 -87 -160l-138 -646h-205l138 646q7 33 7 61 q0 57 -28 99q-42 62 -138 62q-87 0 -160 -67q-74 -68 -90 -155l-139 -646h-204z" />
<glyph unicode="n" horiz-adv-x="1143" d="M108 -15l129 612q39 183 208 322t352 139t292 -139q80 -102 80 -229q0 -45 -10 -93l-130 -612h-205l130 612q6 28 6 53q0 70 -44 127q-58 76 -163 76t-197 -76q-92 -77 -114 -180l-130 -612h-204z" />
<glyph unicode="o" d="M177 512q48 224 242 385q196 161 421 161t351 -161q92 -116 92 -266q0 -57 -13 -119q-48 -224 -243 -385q-194 -159 -419 -159q-226 0 -352 159q-92 117 -92 268q0 56 13 117zM382 512q-8 -39 -8 -75q0 -94 57 -166q79 -100 219 -100q141 0 262 100t153 241q7 36 7 70 q0 95 -58 170q-80 101 -219 101q-140 0 -262 -101q-123 -101 -151 -240z" />
<glyph unicode="p" horiz-adv-x="1271" d="M36 -357l184 869q48 224 242 385q196 161 420 161q226 0 352 -161q91 -116 91 -266q0 -57 -13 -119q-47 -222 -236 -383q-190 -161 -409 -161q-205 0 -327 143l-99 -468h-205zM425 512q-9 -40 -9 -77q0 -92 57 -164q79 -100 220 -100t262 100t153 241q7 36 7 70 q0 95 -58 170q-80 101 -219 101q-140 0 -262 -101q-123 -101 -151 -240z" />
<glyph unicode="q" horiz-adv-x="1271" d="M177 512q48 224 242 385q196 161 421 161t351 -161q92 -116 92 -266q0 -57 -13 -119l-185 -869h-204l99 468q-184 -143 -389 -143q-221 0 -341 161q-86 115 -86 262q0 58 13 121zM382 512q-8 -39 -8 -75q0 -94 57 -166q79 -100 219 -100q141 0 262 100t153 241q7 36 7 70 q0 95 -58 170q-80 101 -219 101q-140 0 -262 -101q-123 -101 -151 -240z" />
<glyph unicode="r" horiz-adv-x="614" d="M108 -15l129 612q40 190 213 324q173 135 364 137l-44 -205q-114 0 -209 -73q-95 -72 -119 -183l-130 -612h-204z" />
<glyph unicode="s" horiz-adv-x="939" d="M205 225l210 53v-11q0 -96 88 -96q45 0 86 32q42 33 53 77q2 9 2 18q0 61 -88 103q-81 40 -127 65t-59 36q-68 61 -68 162q0 36 9 77q27 128 141 223q115 94 244 94q113 0 185 -73q65 -71 70 -185l-212 -52q0 105 -87 105q-45 0 -85 -34q-42 -36 -52 -78q-2 -9 -2 -18 q0 -59 88 -103q158 -77 184 -101q68 -62 68 -164q0 -35 -8 -75q-28 -129 -141 -221q-112 -91 -243 -91q-114 0 -185 71q-70 73 -71 186z" />
<glyph unicode="t" horiz-adv-x="597" d="M193 -15l181 851h-171l44 205h171l72 341h205l-72 -341h171l-45 -205h-170l-181 -851h-205z" />
<glyph unicode="u" horiz-adv-x="1143" d="M201 427l132 614h205l-132 -614q-6 -28 -6 -54q0 -70 43 -126q60 -76 165 -76t196 76t114 180l132 614h204l-131 -614q-39 -183 -207 -321t-351 -138q-184 0 -293 138q-81 102 -81 228q0 45 10 93z" />
<glyph unicode="v" horiz-adv-x="990" d="M200 1041h215l126 -828l478 828h217l-610 -1056h-269z" />
<glyph unicode="w" horiz-adv-x="1451" d="M200 1041h215l126 -828l191 333l-73 495h217l29 -196l114 196h217l-285 -495l51 -333l478 828h216l-609 -1056h-270l-39 261l-152 -261h-269z" />
<glyph unicode="x" horiz-adv-x="954" d="M9 -15l455 527l-230 529h242l150 -341l296 341h242l-456 -529l231 -527h-243l-150 339l-295 -339h-242z" />
<glyph unicode="y" horiz-adv-x="954" d="M-155 -357l310 362l220 1036h205l-153 -720l623 720h242l-1207 -1398h-240z" />
<glyph unicode="z" horiz-adv-x="1039" d="M51 -15l736 851h-541l44 205h917l-738 -853h541l-42 -203h-917z" />
<glyph unicode="{" horiz-adv-x="853" d="M276 580l45 205q70 0 129 42q59 44 74 112l90 426q16 76 84 132t143 56h188l-43 -205h-170l-106 -495q-25 -120 -145 -170q99 -49 73 -171l-106 -495h171l-43 -203h-187q-77 0 -121 56q-43 55 -28 130l91 427q15 68 -27 110q-42 43 -112 43z" />
<glyph unicode="|" horiz-adv-x="512" d="M114 -186l369 1739h205l-369 -1739h-205z" />
<glyph unicode="}" horiz-adv-x="853" d="M114 -186l43 203h171l105 495q25 121 146 171q-99 50 -74 170l106 495h-171l43 205h188q77 0 121 -56q43 -56 27 -132l-90 -426q-16 -68 26 -112q42 -42 112 -42l-44 -205q-71 0 -129 -43q-59 -42 -74 -110l-91 -427q-15 -74 -83 -130t-144 -56h-188z" />
<glyph unicode="~" horiz-adv-x="751" d="M398 1147l25 119q1 7 19 33q59 83 121 83q38 0 96 -47q58 -46 94 -46q46 0 140 97l-26 -120q-1 -3 -6 -11t-13 -21q-60 -84 -121 -84q-38 0 -97 47t-94 47q-47 0 -138 -97z" />
<glyph unicode="&#xa1;" horiz-adv-x="512" d="M79 -357l257 1057h137l-190 -1057h-204zM331 836l44 205h205l-44 -205h-205z" />
<glyph unicode="&#xa2;" horiz-adv-x="1118" d="M328 819q39 181 196 311t338 130q18 0 36.5 -1.5t38.5 -5.5l73 129h110l-93 -158q110 -52 166 -178l-162 -94q-36 77 -96 110l-290 -502q33 -10 65 -10q143 0 263 136l124 -94q-188 -213 -423 -213q-64 0 -121 19l-82 -142h-109l106 183q-90 59 -127 161q-37 103 -13 219 zM498 819q-28 -133 63 -215l280 485h-15q-110 0 -208 -80q-96 -80 -120 -190z" />
<glyph unicode="&#xa5;" horiz-adv-x="1005" d="M177 154l45 204h256l29 137h-256l43 205h225l-297 682h241l223 -512l444 512h242l-587 -682h225l-42 -205h-256l-29 -137h256l-45 -204h-256l-36 -169h-204l35 169h-256z" />
<glyph unicode="&#xa8;" horiz-adv-x="785" d="M476 1519l36 171h171l-36 -171h-171zM783 1519l36 171h171l-36 -171h-171z" />
<glyph unicode="&#xa9;" horiz-adv-x="928" d="M145 362q35 165 175 280q142 116 305 116q162 0 254 -116q92 -117 58 -280q-35 -164 -175 -279t-305 -115q-164 0 -255 115q-92 115 -57 279zM241 362q-26 -125 43 -213t194 -88t231 88t132 213q28 124 -42 212t-195 88q-124 0 -230 -88t-133 -212zM271 362 q24 110 121 189q98 80 207 80q145 0 205 -138l-91 -53q-42 96 -134 96q-70 0 -134 -52q-63 -53 -78 -122q-15 -70 25 -122t111 -52q94 0 176 94l70 -52q-122 -138 -266 -138q-108 0 -173 80q-63 81 -39 190z" />
<glyph unicode="&#xab;" horiz-adv-x="973" d="M297 683l256 358h183l-256 -358l102 -359h-183zM613 683l256 358h182l-256 -358l103 -359h-183z" />
<glyph unicode="&#xad;" horiz-adv-x="853" d="M280 597l37 171h547l-38 -171h-546z" />
<glyph unicode="&#xae;" horiz-adv-x="928" d="M145 362q35 165 175 280q142 116 305 116q162 0 254 -116q92 -117 58 -280q-35 -164 -175 -279t-305 -115q-164 0 -255 115q-92 115 -57 279zM241 362q-25 -121 39 -208l89 416q-102 -86 -128 -208zM358 89q55 -28 120 -28q67 0 130 28h-7l-77 215h-116l-46 -215h-4z M428 399h183q24 0 45.5 18t26.5 42t-9 42t-37 18h-183zM433 614h224q63 0 99 -46t22 -109q-11 -52 -52 -93t-93 -55l62 -173q117 89 146 224q26 124 -44 211q-71 89 -193 89q-89 0 -171 -48z" />
<glyph unicode="&#xaf;" horiz-adv-x="853" d="M411 1212l36 170h546l-36 -170h-546z" />
<glyph unicode="&#xb0;" horiz-adv-x="597" d="M416 1237q13 59 65 102q50 43 111 43q60 0 94 -43q34 -42 21 -102q-12 -59 -64 -102t-112 -43t-94 43q-33 43 -21 102zM519 1237q-9 -42 34 -42t51 42q9 43 -34 43q-44 0 -51 -43z" />
<glyph unicode="&#xb1;" horiz-adv-x="853" d="M150 -15l36 169h546l-36 -169h-546zM280 597l37 171h188l39 188h171l-39 -188h188l-38 -171h-188l-39 -187h-171l40 187h-188z" />
<glyph unicode="&#xb4;" horiz-adv-x="683" d="M452 1519l249 205h234l-351 -205h-132z" />
<glyph unicode="&#xb6;" horiz-adv-x="1323" d="M276 981q36 163 179 282q145 119 308 119h785l-43 -204h-170l-291 -1364h-204l290 1364h-137l-290 -1364h-205l162 766h-68q-165 0 -258 118q-92 119 -58 283z" />
<glyph unicode="&#xbb;" horiz-adv-x="973" d="M212 324l256 359l-103 358h183l102 -358l-256 -359h-182zM527 324l256 359l-102 358h183l102 -358l-256 -359h-183z" />
<glyph unicode="&#xbf;" horiz-adv-x="1097" d="M162 39q33 157 133 249q85 81 255 144q27 10 54.5 19.5t55.5 19.5q32 12 58.5 24.5t47.5 25.5q62 39 91 87q10 17 18.5 44t15.5 65h205l-9 -41q-43 -207 -218 -312q-78 -32 -154 -64t-154 -64q-166 -72 -192 -197q-17 -79 29 -134q46 -57 128 -57q77 0 138 53 q60 51 89 131l191 -49q-62 -149 -188 -244q-125 -96 -273 -96q-166 0 -262 116q-95 116 -59 280zM920 853l44 205h205l-44 -205h-205z" />
<glyph unicode="&#xc0;" d="M-26 -15l804 1397h260l211 -1397h-218l-39 254h-654l-149 -254h-215zM454 444h507l-104 694zM669 1724h234l161 -205h-132z" />
<glyph unicode="&#xc1;" d="M-26 -15l804 1397h260l211 -1397h-218l-39 254h-654l-149 -254h-215zM454 444h507l-104 694zM810 1519l249 205h234l-351 -205h-132z" />
<glyph unicode="&#xc2;" d="M-26 -15l804 1397h260l211 -1397h-218l-39 254h-654l-149 -254h-215zM454 444h507l-104 694zM640 1519l249 205h185l160 -205h-131l-142 111l-189 -111h-132z" />
<glyph unicode="&#xc3;" d="M-26 -15l804 1397h260l211 -1397h-218l-39 254h-654l-149 -254h-215zM454 444h507l-104 694zM696 1430l26 120q1 6 19 32q58 84 121 84q38 0 97 -47t94 -47q47 0 138 97l-25 -119q-1 -4 -6 -12t-13 -21q-59 -83 -120 -83q-40 0 -98 46q-59 47 -94 47q-46 0 -139 -97z" />
<glyph unicode="&#xc4;" d="M-26 -15l804 1397h260l211 -1397h-218l-39 254h-654l-149 -254h-215zM454 444h507l-104 694zM698 1519l36 171h171l-36 -171h-171zM1005 1519l36 171h171l-36 -171h-171z" />
<glyph unicode="&#xc5;" d="M-26 -15l804 1397h260l211 -1397h-218l-39 254h-654l-149 -254h-215zM454 444h507l-104 694zM806 1579q12 59 64 102t112 43q59 0 92 -43q34 -43 22 -102q-13 -59 -65 -103q-51 -42 -111 -42t-94 42t-20 103zM908 1579q-10 -43 33 -43t53 43q7 42 -35 42t-51 -42z" />
<glyph unicode="&#xc6;" horiz-adv-x="1901" d="M-118 -15l1197 1397h962l-42 -204h-683l-80 -376h512l-45 -205h-512l-87 -409h683l-43 -203h-887l54 254h-573l-220 -254h-236zM512 444h442l147 686z" />
<glyph unicode="&#xc8;" horiz-adv-x="1195" d="M150 -15l297 1397h888l-43 -204h-683l-80 -376h512l-44 -205h-512l-87 -409h682l-42 -203h-888zM652 1724h234l161 -205h-132z" />
<glyph unicode="&#xc9;" horiz-adv-x="1195" d="M150 -15l297 1397h888l-43 -204h-683l-80 -376h512l-44 -205h-512l-87 -409h682l-42 -203h-888zM793 1519l249 205h234l-351 -205h-132z" />
<glyph unicode="&#xca;" horiz-adv-x="1195" d="M150 -15l297 1397h888l-43 -204h-683l-80 -376h512l-44 -205h-512l-87 -409h682l-42 -203h-888zM623 1519l249 205h185l160 -205h-131l-142 111l-189 -111h-132z" />
<glyph unicode="&#xcb;" horiz-adv-x="1195" d="M150 -15l297 1397h888l-43 -204h-683l-80 -376h512l-44 -205h-512l-87 -409h682l-42 -203h-888zM681 1519l36 171h171l-36 -171h-171zM988 1519l36 171h171l-36 -171h-171z" />
<glyph unicode="&#xcc;" horiz-adv-x="512" d="M150 -15l297 1397h205l-297 -1397h-205zM312 1724h234l161 -205h-132z" />
<glyph unicode="&#xcd;" horiz-adv-x="512" d="M150 -15l297 1397h205l-297 -1397h-205zM452 1519l249 205h234l-351 -205h-132z" />
<glyph unicode="&#xce;" horiz-adv-x="512" d="M150 -15l297 1397h205l-297 -1397h-205zM283 1519l249 205h185l160 -205h-131l-142 111l-189 -111h-132z" />
<glyph unicode="&#xcf;" horiz-adv-x="512" d="M150 -15l297 1397h205l-297 -1397h-205zM341 1519l36 171h171l-36 -171h-171zM648 1519l36 171h171l-36 -171h-171z" />
<glyph unicode="&#xd1;" horiz-adv-x="1365" d="M150 -15l297 1397h196l442 -1010l215 1010h205l-297 -1397h-196l-442 1008l-215 -1008h-205zM764 1430l26 120q1 6 19 32q58 84 121 84q38 0 97 -47t94 -47q47 0 138 97l-25 -119q-1 -4 -6 -12t-13 -21q-59 -83 -120 -83q-40 0 -98 46q-59 47 -94 47q-46 0 -139 -97z" />
<glyph unicode="&#xd2;" horiz-adv-x="1570" d="M213 683q63 293 319 504q257 212 550 212q294 0 461 -212t104 -504q-63 -294 -319 -505q-257 -210 -550 -210t-461 210q-167 212 -104 505zM418 683q-44 -211 74 -361q118 -151 329 -151t393 151q185 152 228 361q45 209 -74 361q-118 151 -329 151t-393 -151 q-183 -152 -228 -361zM839 1724h234l161 -205h-132z" />
<glyph unicode="&#xd3;" horiz-adv-x="1570" d="M213 683q63 293 319 504q257 212 550 212q294 0 461 -212t104 -504q-63 -294 -319 -505q-257 -210 -550 -210t-461 210q-167 212 -104 505zM418 683q-44 -211 74 -361q118 -151 329 -151t393 151q185 152 228 361q45 209 -74 361q-118 151 -329 151t-393 -151 q-183 -152 -228 -361zM981 1519l249 205h234l-351 -205h-132z" />
<glyph unicode="&#xd4;" horiz-adv-x="1570" d="M213 683q63 293 319 504q257 212 550 212q294 0 461 -212t104 -504q-63 -294 -319 -505q-257 -210 -550 -210t-461 210q-167 212 -104 505zM418 683q-44 -211 74 -361q118 -151 329 -151t393 151q185 152 228 361q45 209 -74 361q-118 151 -329 151t-393 -151 q-183 -152 -228 -361zM810 1519l249 205h185l160 -205h-131l-142 111l-189 -111h-132z" />
<glyph unicode="&#xd5;" horiz-adv-x="1570" d="M213 683q63 293 319 504q257 212 550 212q294 0 461 -212t104 -504q-63 -294 -319 -505q-257 -210 -550 -210t-461 210q-167 212 -104 505zM418 683q-44 -211 74 -361q118 -151 329 -151t393 151q185 152 228 361q45 209 -74 361q-118 151 -329 151t-393 -151 q-183 -152 -228 -361zM867 1430l26 120q1 6 19 32q58 84 121 84q38 0 97 -47t94 -47q47 0 138 97l-25 -119q-1 -4 -6 -12t-13 -21q-59 -83 -120 -83q-40 0 -98 46q-59 47 -94 47q-46 0 -139 -97z" />
<glyph unicode="&#xd6;" horiz-adv-x="1570" d="M213 683q63 293 319 504q257 212 550 212q294 0 461 -212t104 -504q-63 -294 -319 -505q-257 -210 -550 -210t-461 210q-167 212 -104 505zM418 683q-44 -211 74 -361q118 -151 329 -151t393 151q185 152 228 361q45 209 -74 361q-118 151 -329 151t-393 -151 q-183 -152 -228 -361zM869 1519l36 171h171l-36 -171h-171zM1176 1519l36 171h171l-36 -171h-171z" />
<glyph unicode="&#xd7;" horiz-adv-x="853" d="M290 550l161 133l-103 133l144 119l105 -131l161 131l95 -119l-160 -133l102 -133l-143 -120l-106 131l-160 -131z" />
<glyph unicode="&#xd8;" horiz-adv-x="1570" d="M203 -15l142 160q-199 217 -132 538q63 293 319 504q257 212 550 212q159 0 287 -66l44 49h244l-141 -162q199 -215 131 -537q-63 -294 -319 -505q-257 -210 -550 -210q-159 0 -286 64l-45 -47h-244zM418 683q-44 -211 77 -362l724 836q-87 38 -180 38q-211 0 -393 -151 q-183 -152 -228 -361zM642 208q84 -37 179 -37q211 0 393 151q185 152 228 361q45 209 -77 361z" />
<glyph unicode="&#xd9;" horiz-adv-x="1451" d="M268 538l179 844h205l-179 -844q-33 -152 51 -260q86 -107 237 -107t282 107q131 108 164 260l179 844h205l-180 -844q-50 -237 -253 -403q-205 -167 -439 -167q-235 0 -369 167q-132 166 -82 403zM780 1724h234l161 -205h-132z" />
<glyph unicode="&#xda;" horiz-adv-x="1451" d="M268 538l179 844h205l-179 -844q-33 -152 51 -260q86 -107 237 -107t282 107q131 108 164 260l179 844h205l-180 -844q-50 -237 -253 -403q-205 -167 -439 -167q-235 0 -369 167q-132 166 -82 403zM921 1519l249 205h234l-351 -205h-132z" />
<glyph unicode="&#xdb;" horiz-adv-x="1451" d="M268 538l179 844h205l-179 -844q-33 -152 51 -260q86 -107 237 -107t282 107q131 108 164 260l179 844h205l-180 -844q-50 -237 -253 -403q-205 -167 -439 -167q-235 0 -369 167q-132 166 -82 403zM751 1519l249 205h185l160 -205h-131l-142 111l-189 -111h-132z" />
<glyph unicode="&#xdc;" horiz-adv-x="1451" d="M268 538l179 844h205l-179 -844q-33 -152 51 -260q86 -107 237 -107t282 107q131 108 164 260l179 844h205l-180 -844q-50 -237 -253 -403q-205 -167 -439 -167q-235 0 -369 167q-132 166 -82 403zM809 1519l36 171h171l-36 -171h-171zM1116 1519l36 171h171l-36 -171 h-171z" />
<glyph unicode="&#xdd;" horiz-adv-x="1005" d="M222 1382h241l223 -512l444 512h242l-628 -730l-142 -667h-204l141 667zM698 1519l249 205h234l-351 -205h-132z" />
<glyph unicode="&#xe0;" horiz-adv-x="1271" d="M177 512q48 224 242 385q196 161 421 161t351 -161q127 -160 79 -385l-113 -527h-205l28 126q-184 -143 -389 -143q-221 0 -341 161q-120 160 -73 383zM382 512q-30 -141 49 -241t219 -100q141 0 262 100t153 241q28 139 -51 240q-80 101 -219 101q-140 0 -262 -101 q-123 -101 -151 -240zM638 1385h234l161 -205h-132z" />
<glyph unicode="&#xe1;" horiz-adv-x="1271" d="M177 512q48 224 242 385q196 161 421 161t351 -161q127 -160 79 -385l-113 -527h-205l28 126q-184 -143 -389 -143q-221 0 -341 161q-120 160 -73 383zM382 512q-30 -141 49 -241t219 -100q141 0 262 100t153 241q28 139 -51 240q-80 101 -219 101q-140 0 -262 -101 q-123 -101 -151 -240zM780 1180l249 205h234l-351 -205h-132z" />
<glyph unicode="&#xe2;" horiz-adv-x="1271" d="M177 512q48 224 242 385q196 161 421 161t351 -161q127 -160 79 -385l-113 -527h-205l28 126q-184 -143 -389 -143q-221 0 -341 161q-120 160 -73 383zM382 512q-30 -141 49 -241t219 -100q141 0 262 100t153 241q28 139 -51 240q-80 101 -219 101q-140 0 -262 -101 q-123 -101 -151 -240zM541 1180l249 205h185l160 -205h-131l-142 111l-189 -111h-132z" />
<glyph unicode="&#xe3;" horiz-adv-x="1271" d="M177 512q48 224 242 385q196 161 421 161t351 -161q127 -160 79 -385l-113 -527h-205l28 126q-184 -143 -389 -143q-221 0 -341 161q-120 160 -73 383zM382 512q-30 -141 49 -241t219 -100q141 0 262 100t153 241q28 139 -51 240q-80 101 -219 101q-140 0 -262 -101 q-123 -101 -151 -240zM614 1091l26 120q1 6 19 32q58 84 121 84q38 0 97 -47t94 -47q47 0 138 97l-25 -119q-1 -4 -6 -12t-13 -21q-59 -83 -120 -83q-40 0 -98 46q-59 47 -94 47q-46 0 -139 -97z" />
<glyph unicode="&#xe4;" horiz-adv-x="1271" d="M177 512q48 224 242 385q196 161 421 161t351 -161q127 -160 79 -385l-113 -527h-205l28 126q-184 -143 -389 -143q-221 0 -341 161q-120 160 -73 383zM382 512q-30 -141 49 -241t219 -100q141 0 262 100t153 241q28 139 -51 240q-80 101 -219 101q-140 0 -262 -101 q-123 -101 -151 -240zM616 1180l36 171h171l-36 -171h-171zM923 1180l36 171h171l-36 -171h-171z" />
<glyph unicode="&#xe5;" horiz-adv-x="1271" d="M177 512q48 224 242 385q196 161 421 161t351 -161q127 -160 79 -385l-113 -527h-205l28 126q-184 -143 -389 -143q-221 0 -341 161q-120 160 -73 383zM382 512q-30 -141 49 -241t219 -100q141 0 262 100t153 241q28 139 -51 240q-80 101 -219 101q-140 0 -262 -101 q-123 -101 -151 -240zM707 1240q12 59 64 102t112 43q59 0 92 -43q34 -43 22 -102q-13 -59 -65 -103q-51 -42 -111 -42t-94 42t-20 103zM809 1240q-10 -43 33 -43t53 43q7 42 -35 42t-51 -42z" />
<glyph unicode="&#xe6;" horiz-adv-x="2116" d="M177 512q48 225 243 385q197 161 420 161q278 0 394 -227q210 227 491 227q167 0 285 -92t152 -246l-824 -469q83 -80 201 -80q144 0 263 105q117 104 152 251h207q-53 -231 -232 -392q-188 -167 -415 -167q-214 0 -330 143l-27 -126h-205l28 126q-185 -143 -389 -143 q-221 0 -341 161q-120 160 -73 383zM382 512q-30 -141 49 -241t219 -100q141 0 262 100t153 241q28 139 -51 240q-80 101 -219 101q-140 0 -262 -101q-123 -101 -151 -240zM1265 423l619 354q-79 76 -203 76q-143 0 -262 -100q-121 -100 -149 -241q-9 -42 -5 -89z" />
<glyph unicode="&#xe8;" d="M177 510q48 227 241 387q194 161 420 161q166 0 284 -92q116 -91 151 -247l-822 -470q79 -78 201 -78q146 0 264 104q117 104 149 251h206q-49 -231 -240 -395q-190 -163 -422 -163q-227 0 -354 157q-128 158 -78 385zM376 467.5q-1 -22.5 1 -45.5l620 353 q-83 78 -203 78q-141 0 -263 -101q-121 -101 -149 -242q-5 -20 -6 -42.5zM595 1385h234l161 -205h-132z" />
<glyph unicode="&#xe9;" d="M177 510q48 227 241 387q194 161 420 161q166 0 284 -92q116 -91 151 -247l-822 -470q79 -78 201 -78q146 0 264 104q117 104 149 251h206q-49 -231 -240 -395q-190 -163 -422 -163q-227 0 -354 157q-128 158 -78 385zM376 467.5q-1 -22.5 1 -45.5l620 353 q-83 78 -203 78q-141 0 -263 -101q-121 -101 -149 -242q-5 -20 -6 -42.5zM737 1180l249 205h234l-351 -205h-132z" />
<glyph unicode="&#xea;" d="M177 510q48 227 241 387q194 161 420 161q166 0 284 -92q116 -91 151 -247l-822 -470q79 -78 201 -78q146 0 264 104q117 104 149 251h206q-49 -231 -240 -395q-190 -163 -422 -163q-227 0 -354 157q-128 158 -78 385zM376 467.5q-1 -22.5 1 -45.5l620 353 q-83 78 -203 78q-141 0 -263 -101q-121 -101 -149 -242q-5 -20 -6 -42.5zM566 1180l249 205h185l160 -205h-131l-142 111l-189 -111h-132z" />
<glyph unicode="&#xeb;" d="M177 510q48 227 241 387q194 161 420 161q166 0 284 -92q116 -91 151 -247l-822 -470q79 -78 201 -78q146 0 264 104q117 104 149 251h206q-49 -231 -240 -395q-190 -163 -422 -163q-227 0 -354 157q-128 158 -78 385zM376 467.5q-1 -22.5 1 -45.5l620 353 q-83 78 -203 78q-141 0 -263 -101q-121 -101 -149 -242q-5 -20 -6 -42.5zM624 1180l36 171h171l-36 -171h-171zM931 1180l36 171h171l-36 -171h-171z" />
<glyph unicode="&#xec;" horiz-adv-x="512" d="M150 -15l225 1056h205l-225 -1056h-205zM239 1385h234l161 -205h-132z" />
<glyph unicode="&#xed;" horiz-adv-x="512" d="M150 -15l225 1056h205l-225 -1056h-205zM381 1180l249 205h234l-351 -205h-132z" />
<glyph unicode="&#xee;" horiz-adv-x="512" d="M150 -15l225 1056h205l-225 -1056h-205zM210 1180l249 205h185l160 -205h-131l-142 111l-189 -111h-132z" />
<glyph unicode="&#xef;" horiz-adv-x="512" d="M150 -15l225 1056h205l-225 -1056h-205zM268 1180l36 171h171l-36 -171h-171zM575 1180l36 171h171l-36 -171h-171z" />
<glyph unicode="&#xf1;" d="M108 -15l129 612q39 183 208 322t352 139t292 -139t70 -322l-130 -612h-205l130 612q22 103 -38 180q-58 76 -163 76t-197 -76q-92 -77 -114 -180l-130 -612h-204zM623 1091l26 120q1 6 19 32q58 84 121 84q38 0 97 -47t94 -47q47 0 138 97l-25 -119q-1 -4 -6 -12 t-13 -21q-59 -83 -120 -83q-40 0 -98 46q-59 47 -94 47q-46 0 -139 -97z" />
<glyph unicode="&#xf2;" d="M177 512q48 224 242 385q196 161 421 161t351 -161q127 -160 79 -385q-48 -224 -243 -385q-194 -159 -419 -159q-226 0 -352 159q-126 160 -79 385zM382 512q-30 -141 49 -241t219 -100q141 0 262 100t153 241q28 139 -51 240q-80 101 -219 101q-140 0 -262 -101 q-123 -101 -151 -240zM595 1385h234l161 -205h-132z" />
<glyph unicode="&#xf3;" d="M177 512q48 224 242 385q196 161 421 161t351 -161q127 -160 79 -385q-48 -224 -243 -385q-194 -159 -419 -159q-226 0 -352 159q-126 160 -79 385zM382 512q-30 -141 49 -241t219 -100q141 0 262 100t153 241q28 139 -51 240q-80 101 -219 101q-140 0 -262 -101 q-123 -101 -151 -240zM754 1180l249 205h234l-351 -205h-132z" />
<glyph unicode="&#xf4;" d="M177 512q48 224 242 385q196 161 421 161t351 -161q127 -160 79 -385q-48 -224 -243 -385q-194 -159 -419 -159q-226 0 -352 159q-126 160 -79 385zM382 512q-30 -141 49 -241t219 -100q141 0 262 100t153 241q28 139 -51 240q-80 101 -219 101q-140 0 -262 -101 q-123 -101 -151 -240zM566 1180l249 205h185l160 -205h-131l-142 111l-189 -111h-132z" />
<glyph unicode="&#xf5;" d="M177 512q48 224 242 385q196 161 421 161t351 -161q127 -160 79 -385q-48 -224 -243 -385q-194 -159 -419 -159q-226 0 -352 159q-126 160 -79 385zM382 512q-30 -141 49 -241t219 -100q141 0 262 100t153 241q28 139 -51 240q-80 101 -219 101q-140 0 -262 -101 q-123 -101 -151 -240zM623 1091l26 120q1 6 19 32q58 84 121 84q38 0 97 -47t94 -47q47 0 138 97l-25 -119q-1 -4 -6 -12t-13 -21q-59 -83 -120 -83q-40 0 -98 46q-59 47 -94 47q-46 0 -139 -97z" />
<glyph unicode="&#xf6;" d="M177 512q48 224 242 385q196 161 421 161t351 -161q127 -160 79 -385q-48 -224 -243 -385q-194 -159 -419 -159q-226 0 -352 159q-126 160 -79 385zM382 512q-30 -141 49 -241t219 -100q141 0 262 100t153 241q28 139 -51 240q-80 101 -219 101q-140 0 -262 -101 q-123 -101 -151 -240zM624 1180l36 171h171l-36 -171h-171zM931 1180l36 171h171l-36 -171h-171z" />
<glyph unicode="&#xf7;" horiz-adv-x="853" d="M280 597l37 171h547l-38 -171h-546zM422 375l35 171h171l-36 -171h-170zM515 819l36 171h171l-36 -171h-171z" />
<glyph unicode="&#xf8;" d="M108 -15l143 150q-120 161 -74 377q48 224 242 385q196 161 421 161q124 0 220 -51l34 34h246l-144 -152q120 -161 74 -377q-48 -224 -243 -385q-194 -159 -419 -159q-125 0 -222 49l-33 -32h-245zM382 512q-25 -115 26 -207l493 530q-51 18 -106 18q-140 0 -262 -101 q-123 -101 -151 -240zM546 189q49 -18 104 -18q141 0 262 100t153 241q24 115 -27 207z" />
<glyph unicode="&#xf9;" d="M201 427l132 614h205l-132 -614q-22 -102 37 -180q60 -76 165 -76t196 76t114 180l132 614h204l-131 -614q-39 -183 -207 -321t-351 -138q-184 0 -293 138q-110 138 -71 321zM595 1385h234l161 -205h-132z" />
<glyph unicode="&#xfa;" d="M201 427l132 614h205l-132 -614q-22 -102 37 -180q60 -76 165 -76t196 76t114 180l132 614h204l-131 -614q-39 -183 -207 -321t-351 -138q-184 0 -293 138q-110 138 -71 321zM737 1180l249 205h234l-351 -205h-132z" />
<glyph unicode="&#xfb;" d="M201 427l132 614h205l-132 -614q-22 -102 37 -180q60 -76 165 -76t196 76t114 180l132 614h204l-131 -614q-39 -183 -207 -321t-351 -138q-184 0 -293 138q-110 138 -71 321zM566 1180l249 205h185l160 -205h-131l-142 111l-189 -111h-132z" />
<glyph unicode="&#xfc;" d="M201 427l132 614h205l-132 -614q-22 -102 37 -180q60 -76 165 -76t196 76t114 180l132 614h204l-131 -614q-39 -183 -207 -321t-351 -138q-184 0 -293 138q-110 138 -71 321zM624 1180l36 171h171l-36 -171h-171zM931 1180l36 171h171l-36 -171h-171z" />
<glyph unicode="&#xfd;" horiz-adv-x="954" d="M-155 -357l310 362l220 1036h205l-153 -720l623 720h242l-1207 -1398h-240zM684 1180l249 205h234l-351 -205h-132z" />
<glyph unicode="&#xff;" horiz-adv-x="954" d="M-155 -357l310 362l220 1036h205l-153 -720l623 720h242l-1207 -1398h-240zM572 1180l36 171h171l-36 -171h-171zM879 1180l36 171h171l-36 -171h-171z" />
<glyph unicode="&#x152;" horiz-adv-x="2338" d="M213 683q63 293 319 504q257 212 550 212q299 0 466 -216l43 199h887l-43 -204h-682l-80 -376h512l-45 -205h-512l-87 -409h683l-43 -203h-887l42 198q-257 -215 -558 -215q-293 0 -461 210q-167 212 -104 505zM418 683q-44 -211 74 -361q118 -151 329 -151t393 151 q185 152 228 361q45 209 -74 361q-118 151 -329 151t-393 -151q-183 -152 -228 -361z" />
<glyph unicode="&#x153;" horiz-adv-x="2116" d="M177 512q48 224 242 385q196 161 421 161q280 0 394 -229q213 229 493 229q225 0 351 -161q127 -160 79 -385q-12 -51 -30 -102h-864q12 -106 88 -173q76 -66 187 -66q181 0 329 169l149 -113q-107 -122 -239 -189q-139 -70 -282 -70q-280 0 -396 227 q-212 -227 -491 -227q-226 0 -352 159q-126 160 -79 385zM382 512q-30 -141 49 -241t219 -100q141 0 262 100t153 241q28 139 -51 240q-80 101 -219 101q-140 0 -262 -101q-123 -101 -151 -240zM1307 614h652q-12 105 -89 172q-76 67 -187 67q-112 0 -215 -67 q-105 -67 -161 -172z" />
<glyph unicode="&#x178;" horiz-adv-x="1005" d="M222 1382h241l223 -512l444 512h242l-628 -730l-142 -667h-204l141 667zM585 1519l36 171h171l-36 -171h-171zM892 1519l36 171h171l-36 -171h-171z" />
<glyph unicode="&#x2c6;" horiz-adv-x="853" d="M452 1519l249 205h185l160 -205h-131l-142 111l-189 -111h-132z" />
<glyph unicode="&#x2dc;" horiz-adv-x="751" d="M457 1430l26 120q1 6 19 32q58 84 121 84q38 0 97 -47t94 -47q47 0 138 97l-25 -119q-1 -4 -6 -12t-13 -21q-59 -83 -120 -83q-40 0 -98 46q-59 47 -94 47q-46 0 -139 -97z" />
<glyph unicode="&#x2000;" horiz-adv-x="862" />
<glyph unicode="&#x2001;" horiz-adv-x="1724" />
<glyph unicode="&#x2002;" horiz-adv-x="862" />
<glyph unicode="&#x2003;" horiz-adv-x="1724" />
<glyph unicode="&#x2004;" horiz-adv-x="574" />
<glyph unicode="&#x2005;" horiz-adv-x="431" />
<glyph unicode="&#x2006;" horiz-adv-x="287" />
<glyph unicode="&#x2007;" horiz-adv-x="287" />
<glyph unicode="&#x2008;" horiz-adv-x="215" />
<glyph unicode="&#x2009;" horiz-adv-x="344" />
<glyph unicode="&#x200a;" horiz-adv-x="95" />
<glyph unicode="&#x2010;" horiz-adv-x="853" d="M280 597l37 171h547l-38 -171h-546z" />
<glyph unicode="&#x2011;" horiz-adv-x="853" d="M280 597l37 171h547l-38 -171h-546z" />
<glyph unicode="&#x2012;" horiz-adv-x="853" d="M280 597l37 171h547l-38 -171h-546z" />
<glyph unicode="&#x2013;" horiz-adv-x="768" d="M280 597l37 171h461l-37 -171h-461z" />
<glyph unicode="&#x2014;" horiz-adv-x="1024" d="M280 597l37 171h717l-37 -171h-717z" />
<glyph unicode="&#x2018;" horiz-adv-x="512" d="M386 1092l61 290h154l-14 -68h-68l-4 -17h120l-44 -205h-205z" />
<glyph unicode="&#x2019;" horiz-adv-x="512" d="M404 1178l43 204h205l-61 -290h-154l15 69h69l3 17h-120z" />
<glyph unicode="&#x201a;" horiz-adv-x="512" d="M150 -15l43 203h205l-62 -289h-153l15 69h68l4 17h-120z" />
<glyph unicode="&#x201c;" horiz-adv-x="768" d="M386 1092l61 290h154l-14 -68h-68l-4 -17h120l-44 -205h-205zM642 1092l61 290h154l-14 -68h-68l-4 -17h120l-44 -205h-205z" />
<glyph unicode="&#x201d;" horiz-adv-x="768" d="M404 1178l43 204h205l-61 -290h-154l15 69h69l3 17h-120zM660 1178l43 204h205l-61 -290h-154l15 69h69l3 17h-120z" />
<glyph unicode="&#x201e;" horiz-adv-x="768" d="M150 -15l43 203h205l-62 -289h-153l15 69h68l4 17h-120zM406 -15l43 203h205l-62 -289h-153l15 69h68l4 17h-120z" />
<glyph unicode="&#x2022;" horiz-adv-x="853" d="M213 683q33 148 160 253t276 105q148 0 231 -105t50 -253q-32 -149 -159 -254q-128 -105 -276 -105q-149 0 -231 105q-81 105 -51 254z" />
<glyph unicode="&#x2026;" horiz-adv-x="1024" d="M150 -15l43 203h205l-43 -203h-205zM406 -15l43 203h205l-43 -203h-205zM662 -15l43 203h205l-43 -203h-205z" />
<glyph unicode="&#x202f;" horiz-adv-x="344" />
<glyph unicode="&#x2039;" horiz-adv-x="657" d="M297 683l256 358h183l-256 -358l102 -359h-183z" />
<glyph unicode="&#x203a;" horiz-adv-x="657" d="M212 324l256 359l-103 358h183l102 -358l-256 -359h-182z" />
<glyph unicode="&#x205f;" horiz-adv-x="431" />
<glyph unicode="&#x2122;" horiz-adv-x="1031" d="M341 1287l21 95h461l88 -389l253 389h92l-111 -525h-95l59 280l-181 -280h-92l-61 280l-60 -280h-95l90 430h-119l-91 -430h-96l91 430h-154z" />
<glyph unicode="&#x25fc;" horiz-adv-x="1040" d="M0 0v1040h1040v-1040h-1040z" />
</font>
</defs>
</svg>
