<?xml version="1.0" standalone="no"?>
<!DOCTYPE svg PUBLIC "-//W3C//DTD SVG 1.1//EN" "http://www.w3.org/Graphics/SVG/1.1/DTD/svg11.dtd" >
<svg xmlns="http://www.w3.org/2000/svg" xmlns:xlink="http://www.w3.org/1999/xlink" version="1.1">
<metadata></metadata>
<defs>
<font id="sf_new_republic_scbold" horiz-adv-x="512" >
<font-face units-per-em="2048" ascent="1638" descent="-410" />
<missing-glyph horiz-adv-x="597" />
<glyph horiz-adv-x="0" />
<glyph horiz-adv-x="682" />
<glyph unicode=" "  horiz-adv-x="597" />
<glyph unicode="&#x09;" horiz-adv-x="597" />
<glyph unicode="&#xa0;" horiz-adv-x="597" />
<glyph unicode="!" d="M154 -15v203h204v-203h-204zM154 1382h204l-34 -1058h-136z" />
<glyph unicode="&#x22;" horiz-adv-x="768" d="M154 1178v204h204v-290h-153v69h68v17h-119zM410 1178v204h204v-290h-153v69h68v17h-119z" />
<glyph unicode="#" horiz-adv-x="1126" d="M154 734v171h165l10 136h-175v171h191l15 170h171l-16 -170h137l15 170h171l-15 -170h150v-171h-166l-10 -136h176v-171h-191l-16 -171h-170l15 171h-137l-15 -171h-171l16 171h-150zM490 905h136l11 136h-137z" />
<glyph unicode="$" horiz-adv-x="947" d="M150 382l167 46q16 -114 106 -145v328q-135 52 -196 116q-73 79 -73 212q0 116 77 205q79 91 192 110v128h101v-126q106 -15 179 -91q75 -78 94 -184l-169 -42q-14 114 -104 143v-329q136 -52 196 -115q74 -77 74 -210q0 -116 -78 -207q-79 -91 -192 -110v-126h-101v124 q-106 16 -179 91q-73 74 -94 182zM326 939q0 -92 97 -144v282q-97 -39 -97 -138zM524 288q99 40 99 140q0 90 -99 140v-280z" />
<glyph unicode="%" horiz-adv-x="1809" d="M68 1007q0 154 111 264q111 111 265 111q153 0 264 -111q111 -110 111 -264t-111 -265t-264 -111q-154 0 -265 111t-111 265zM273 1007q0 -68 51 -120q51 -51 120 -51q68 0 119 51q51 52 51 120t-51 119q-51 52 -119 52q-69 0 -120 -52q-51 -51 -51 -119zM328 -15 l911 1397h242l-911 -1397h-242zM990 358q0 154 111 265t264 111q154 0 265 -111t111 -265t-111 -263q-112 -110 -265 -110q-152 0 -264 110q-111 109 -111 263zM1195 358q0 -68 51 -119t119 -51q69 0 120 51t51 119q0 69 -51 120t-120 51q-68 0 -119 -51t-51 -120z" />
<glyph unicode="&#x26;" horiz-adv-x="1178" d="M154 410q0 232 201 348q-133 97 -133 266q0 155 110 265t265 110q131 0 232 -83t135 -212l-198 -53q-39 144 -169 144q-71 0 -120 -51q-50 -50 -50 -120q0 -69 50 -121q50 -50 120 -50h427v-204h-85v-308q0 -157 -117 -265t-276 -108q-172 0 -287 136q-105 130 -105 306z M358 410q0 -94 48 -161q52 -78 140 -78q74 0 131 48q57 49 57 122v308h-137q-97 0 -168 -71t-71 -168z" />
<glyph unicode="'" d="M154 1178v204h204v-290h-153v69h68v17h-119z" />
<glyph unicode="(" horiz-adv-x="717" d="M154 683q0 258 46 448q46 192 165 422h208q-120 -234 -167 -420q-48 -194 -48 -450t48 -451q48 -188 167 -418h-208q-119 226 -165 420q-46 191 -46 449z" />
<glyph unicode=")" horiz-adv-x="717" d="M143 -186q119 229 168 418q47 197 47 451t-47 450q-48 187 -168 420h209q59 -115 100 -220t64 -202q47 -194 47 -448q0 -129 -12 -240.5t-35 -208.5q-46 -192 -164 -420h-209z" />
<glyph unicode="*" horiz-adv-x="922" d="M154 913q0 41 39 73l181 55l-181 55q-39 30 -39 73q0 17 7 32.5t18.5 27t27 18.5t32.5 7q15 0 39 -8l138 -130l-41 184q10 82 86 82q72 0 85 -82l-41 -184l137 130q21 8 41 8q17 0 32.5 -7t27 -18.5t18.5 -27t7 -32.5q0 -42 -39 -73l-181 -55l181 -55q39 -30 39 -73 q0 -17 -7 -32.5t-18.5 -27t-27 -18.5t-32.5 -7q-16 0 -40 8l-138 130l41 -184q-10 -82 -85 -82q-73 0 -86 82l41 184l-136 -130q-22 -8 -41 -8q-17 0 -32.5 7t-27 18.5t-18.5 27t-7 32.5z" />
<glyph unicode="+" horiz-adv-x="853" d="M154 597v171h187v188h171v-188h188v-171h-188v-187h-171v187h-187z" />
<glyph unicode="," d="M154 -15v203h204v-289h-153v69h68v17h-119z" />
<glyph unicode="-" horiz-adv-x="853" d="M154 597v171h546v-171h-546z" />
<glyph unicode="." d="M154 -15v203h204v-203h-204z" />
<glyph unicode="/" horiz-adv-x="744" d="M-20 -99l593 1635l193 -70l-595 -1635z" />
<glyph unicode="0" horiz-adv-x="1195" d="M154 410v546q0 182 130 312q131 131 313 131t313 -131t131 -312v-546q0 -182 -131 -313q-131 -129 -313 -129q-183 0 -313 129q-130 130 -130 313zM358 410q0 -98 71 -169q70 -70 168 -70t168 70q71 71 71 169v546q0 97 -71 168t-168 71t-168 -71t-71 -168v-546z" />
<glyph unicode="1" d="M154 -15v1397h204v-1397h-204z" />
<glyph unicode="2" horiz-adv-x="1072" d="M154 -15v186q0 209 155 358l290 212q155 119 155 261q0 80 -59 136q-59 57 -139 57q-76 0 -127 -54q-50 -54 -60 -132l-202 51q28 146 136 243q106 96 253 96q166 0 285 -116q120 -116 120 -281q0 -203 -152 -350q-72 -54 -143.5 -106.5t-143.5 -106.5 q-157 -118 -164 -251h598v-203h-802z" />
<glyph unicode="3" horiz-adv-x="1138" d="M108 314l197 51q22 -84 87 -140q64 -54 149 -54q98 0 168 70q71 71 71 169q0 97 -71 168t-168 71h-102v204h102q70 0 120 50q51 51 51 121t-51 120q-50 51 -120 51q-132 0 -169 -144l-198 53q34 129 135 212t232 83q155 0 265 -110t110 -265q0 -169 -133 -266 q202 -115 202 -348q0 -182 -131 -313q-131 -129 -313 -129q-155 0 -275 96q-119 97 -158 250z" />
<glyph unicode="4" horiz-adv-x="1007" d="M-22 324l338 934l193 -70l-241 -659h381v853h204v-1397h-204v339h-671z" />
<glyph unicode="5" horiz-adv-x="1145" d="M152 582l63 800h734v-204h-545l-27 -331q98 76 243 76q180 0 302 -152q112 -142 112 -327q0 -191 -124 -333q-131 -143 -319 -143q-160 0 -275 93q-117 96 -157 250l196 53q24 -88 86 -140.5t150 -52.5q104 0 174 85q64 79 64 188q0 108 -64 187q-71 86 -174 86 q-44 0 -82 -14t-68 -39t-52 -60.5t-34 -77.5z" />
<glyph unicode="6" horiz-adv-x="1109" d="M154 410q0 57 15 116l229 856h213l-154 -570q76 40 159 40q174 0 299 -134q126 -134 126 -308q0 -182 -131 -313q-131 -129 -313 -129q-183 0 -313 129q-130 130 -130 313zM358 410q0 -98 71 -169q70 -70 168 -70t168 70q71 71 71 169q0 97 -71 168t-168 71t-168 -71 t-71 -168z" />
<glyph unicode="7" horiz-adv-x="939" d="M68 1178v204h898l-654 -1397h-227l558 1193h-575z" />
<glyph unicode="8" horiz-adv-x="1195" d="M154 410q0 232 201 348q-133 97 -133 266q0 155 110 265t265 110q156 0 266 -110t110 -265q0 -169 -133 -266q201 -116 201 -348q0 -182 -131 -313q-131 -129 -313 -129q-183 0 -313 129q-130 130 -130 313zM358 410q0 -98 71 -169q70 -70 168 -70t168 70q71 71 71 169 q0 97 -71 168t-168 71t-168 -71t-71 -168zM427 1024q0 -69 50 -121q50 -50 120 -50t120 50q51 51 51 121t-51 120q-50 51 -120 51q-71 0 -120 -51q-50 -50 -50 -120z" />
<glyph unicode="9" horiz-adv-x="1109" d="M68 956q0 182 130 312q131 131 314 131q182 0 313 -131t131 -312q0 -59 -16 -116l-228 -855h-214l154 568q-77 -39 -159 -39q-174 0 -300 134q-125 134 -125 308zM273 956q0 -98 71 -169q70 -70 168 -70t168 70q71 71 71 169q0 97 -71 168t-168 71t-168 -71t-71 -168z " />
<glyph unicode=":" d="M154 -15v203h204v-203h-204zM154 751v205h204v-205h-204z" />
<glyph unicode=";" d="M154 -15v203h204v-289h-153v69h68v17h-119zM154 751v205h204v-205h-204z" />
<glyph unicode="&#x3c;" horiz-adv-x="657" d="M152 683l179 358h183l-179 -358l179 -359h-183z" />
<glyph unicode="=" horiz-adv-x="939" d="M154 478v171h631v-171h-631zM154 717v170h631v-170h-631z" />
<glyph unicode="&#x3e;" horiz-adv-x="657" d="M143 324l180 359l-180 358h183l179 -358l-179 -359h-183z" />
<glyph unicode="?" horiz-adv-x="1097" d="M150 1060q28 148 135 243q106 96 254 96q166 0 285 -116q120 -116 120 -281q0 -154 -80 -249q-69 -81 -224 -144q-51 -18 -102 -39q-61 -23 -96 -49q-55 -40 -72 -88q-13 -34 -12 -109h-204v41q0 207 151 313l140 64l140 64q152 71 152 196q0 80 -59 136q-59 57 -139 57 q-78 0 -128 -53q-48 -51 -59 -133zM154 -15v203h204v-203h-204z" />
<glyph unicode="@" horiz-adv-x="1570" d="M68 683q0 292 212 504t505 212t505 -212t212 -504q0 -220 -103 -359q-116 -158 -326 -158q-79 0 -141 59q-60 60 -63 140q-78 -37 -162 -37q-127 0 -209 84q-82 85 -82 211q0 159 125 287t285 128q83 0 150 -40l7 29h178q-7 9 -16 16q-150 152 -360 152t-361 -151 t-151 -361q0 -216 156 -364q155 -148 373 -148v-203q-300 0 -517 208t-217 507zM623 652q0 -54 33.5 -87t87.5 -33q70 0 124 55q55 55 55 125q0 25 -9 47.5t-25 38.5t-38 25.5t-47 9.5q-70 0 -126 -56q-55 -55 -55 -125zM1063 389q0 -25 34 -25q109 0 161 112q39 84 39 207 q0 193 -128 336l-104 -594q-1 -5 -1.5 -14t-0.5 -22z" />
<glyph unicode="A" horiz-adv-x="1229" d="M-22 -15l507 1397h259l509 -1397h-219l-94 254h-653l-94 -254h-215zM360 444h507l-253 694z" />
<glyph unicode="B" horiz-adv-x="1451" d="M154 -15v1397h708q163 0 282 -119t119 -282q0 -182 -145 -288q179 -104 179 -309q0 -163 -119 -282q-119 -117 -282 -117h-742zM358 188h538q79 0 137 58q59 59 59 138q0 80 -58 138t-138 58h-538v-392zM358 785h504q80 0 138 58t58 138q0 79 -59 138t-137 59h-504v-393z " />
<glyph unicode="C" horiz-adv-x="1459" d="M68 683q0 292 212 504t505 212q183 0 350 -93q158 -92 263 -251l-173 -111q-74 113 -189 181q-119 70 -251 70q-210 0 -361 -151t-151 -361t151 -361t361 -151q132 0 251 70q114 66 188 179l172 -113q-101 -156 -265 -248q-161 -91 -346 -91q-294 0 -505 210 q-212 212 -212 505z" />
<glyph unicode="D" horiz-adv-x="1451" d="M154 -15v1397h529q286 0 492 -207q207 -206 207 -492q0 -288 -207 -493q-205 -205 -492 -205h-529zM358 188h325q203 0 349 146t146 349t-146 349t-349 146h-325v-990z" />
<glyph unicode="E" horiz-adv-x="1195" d="M154 -15v1397h887v-204h-683v-376h512v-205h-512v-409h683v-203h-887z" />
<glyph unicode="F" horiz-adv-x="1109" d="M154 -15v1397h887v-204h-683v-376h512v-205h-512v-612h-204z" />
<glyph unicode="G" horiz-adv-x="1545" d="M68 683q0 292 212 504t505 212q183 0 350 -95q159 -91 263 -249l-173 -111q-74 113 -189 181q-119 70 -251 70q-210 0 -361 -151t-151 -361t151 -361t361 -151q241 0 399 194v215h-416v205h621v-800h-205v128q-151 -145 -399 -145q-294 0 -505 210q-212 212 -212 505z " />
<glyph unicode="H" horiz-adv-x="1365" d="M154 -15v1397h204v-597h649v597h205v-1397h-205v595h-649v-595h-204z" />
<glyph unicode="I" d="M154 -15v1397h204v-1397h-204z" />
<glyph unicode="J" horiz-adv-x="896" d="M26 384h204q0 -88 55 -150q55 -63 142 -63q80 0 138 58t58 138v1015h205v-1015q0 -166 -118 -283q-119 -116 -283 -116q-170 0 -286 122q-115 121 -115 294z" />
<glyph unicode="K" horiz-adv-x="1237" d="M154 -15v1397h204v-588l589 588h289l-700 -699l700 -698h-289l-556 553l-33 -33v-520h-204z" />
<glyph unicode="L" horiz-adv-x="1024" d="M154 -15v1397h204v-1194h683v-203h-887z" />
<glyph unicode="M" horiz-adv-x="1707" d="M154 -15v1397h206l493 -1126l494 1126h206v-1397h-205v889l-389 -889h-211l-390 889v-889h-204z" />
<glyph unicode="N" horiz-adv-x="1365" d="M154 -15v1397h196l657 -1010v1010h205v-1397h-197l-657 1008v-1008h-204z" />
<glyph unicode="O" horiz-adv-x="1570" d="M68 683q0 292 212 504t505 212t505 -212t212 -504q0 -293 -212 -505q-212 -210 -505 -210q-294 0 -505 210q-212 212 -212 505zM273 683q0 -210 151 -361t361 -151t361 151t151 361t-151 361t-361 151t-361 -151t-151 -361z" />
<glyph unicode="P" horiz-adv-x="1365" d="M154 -15v1397h742q163 0 282 -119t119 -282q0 -165 -118 -283q-117 -118 -283 -118h-538v-595h-204zM358 785h538q80 0 138 58t58 138q0 79 -59 138t-137 59h-538v-393z" />
<glyph unicode="Q" horiz-adv-x="1570" d="M68 683q0 292 212 504t505 212t505 -212t212 -504q0 -236 -145 -429l254 -254l-143 -142l-255 253q-193 -143 -428 -143q-294 0 -505 210q-212 212 -212 505zM273 683q0 -210 151 -361t361 -151q153 0 280 85l-253 254l145 145l255 -252q85 127 85 280q0 210 -151 361 t-361 151t-361 -151t-151 -361z" />
<glyph unicode="R" horiz-adv-x="1365" d="M154 -15v1397h742q163 0 282 -119t119 -282q0 -146 -97 -259q-96 -113 -239 -137l348 -600h-237l-343 595h-371v-595h-204zM358 785h538q80 0 138 58t58 138q0 79 -59 138t-137 59h-538v-393z" />
<glyph unicode="S" horiz-adv-x="1097" d="M150 304l200 54q11 -80 60 -131q54 -56 131 -56q80 0 139 57t59 137q0 122 -152 193q-282 127 -282 130q-151 103 -151 314q0 165 119 281q121 116 285 116q149 0 254 -96q106 -95 135 -243l-201 -51q-11 81 -60 133q-50 53 -128 53q-81 0 -139 -57q-59 -56 -59 -136 q0 -124 152 -195l280 -129q152 -107 152 -313q0 -165 -119 -281t-284 -116q-148 0 -255 94q-108 95 -136 242z" />
<glyph unicode="T" horiz-adv-x="1109" d="M26 1178v204h1058v-204h-427v-1193h-205v1193h-426z" />
<glyph unicode="U" horiz-adv-x="1451" d="M154 538v844h204v-844q0 -151 107 -260q109 -107 260 -107t259 108t108 259v844h205v-844q0 -237 -168 -403q-169 -167 -404 -167q-234 0 -403 167q-168 166 -168 403z" />
<glyph unicode="V" horiz-adv-x="1229" d="M-22 1382h215l421 -1155l420 1155h219l-509 -1397h-259z" />
<glyph unicode="W" horiz-adv-x="1792" d="M-22 1382h215l421 -1155l173 474l-248 681h217l140 -382l138 382h219l-248 -682l173 -473l419 1155h219l-509 -1397h-259l-152 416l-152 -416h-259z" />
<glyph unicode="X" horiz-adv-x="1176" d="M12 -15l454 698l-454 699h242l333 -512l335 512h242l-454 -699l454 -698h-242l-335 510l-333 -510h-242z" />
<glyph unicode="Y" horiz-adv-x="1005" d="M-72 1382h241l333 -512l334 512h243l-473 -730v-667h-205v667z" />
<glyph unicode="Z" horiz-adv-x="1261" d="M55 -15l776 1193h-763v204h1139l-777 -1194h763v-203h-1138z" />
<glyph unicode="[" horiz-adv-x="683" d="M154 -186v1739h375v-205h-171v-1331h171v-203h-375z" />
<glyph unicode="\" horiz-adv-x="744" d="M-20 1466l191 70l595 -1635l-193 -70z" />
<glyph unicode="]" horiz-adv-x="683" d="M154 17h170v1331h-170v205h375v-1739h-375v203z" />
<glyph unicode="^" horiz-adv-x="853" d="M130 1178l205 204h184l205 -204h-132l-165 111l-166 -111h-131z" />
<glyph unicode="_" horiz-adv-x="683" d="M-15 17h715v-169h-715v169z" />
<glyph unicode="`" horiz-adv-x="683" d="M114 1724h234l205 -205h-131z" />
<glyph unicode="a" horiz-adv-x="1106" d="M-22 -15l457 1261h236l459 -1261h-200l-85 228h-586l-85 -228h-196zM328 401h450l-225 618z" />
<glyph unicode="b" horiz-adv-x="1306" d="M137 -15v1261h638q148 0 255 -108q108 -107 108 -256q0 -162 -128 -257q159 -95 159 -280q0 -149 -108 -255q-107 -105 -255 -105h-669zM324 171h482q70 0 122 52q53 53 53 122q0 71 -52 123q-53 53 -123 53h-482v-350zM324 708h451q72 0 124 52t52 122t-53 123t-123 53 h-451v-350z" />
<glyph unicode="c" horiz-adv-x="1312" d="M60 614q0 265 191 456t456 191q167 0 315 -85q143 -83 238 -227l-157 -101q-147 225 -396 225q-188 0 -324 -136q-136 -135 -136 -323q0 -187 136 -323t324 -136q246 0 394 226l157 -105q-94 -140 -237 -223q-149 -84 -314 -84q-266 0 -456 190q-191 191 -191 455z" />
<glyph unicode="d" horiz-adv-x="1306" d="M137 -15v1261h477q260 0 446 -186t186 -446t-186 -444q-187 -185 -446 -185h-477zM324 171h290q183 0 313 130q131 131 131 313t-131 313t-313 131h-290v-887z" />
<glyph unicode="e" horiz-adv-x="1075" d="M137 -15v1261h802v-188h-615v-334h461v-188h-461v-365h615v-186h-802z" />
<glyph unicode="f" horiz-adv-x="998" d="M137 -15v1261h802v-188h-615v-334h461v-188h-461v-551h-187z" />
<glyph unicode="g" horiz-adv-x="1389" d="M60 614q0 265 191 456t456 191q167 0 315 -85q143 -83 238 -227l-157 -101q-149 225 -396 225q-188 0 -324 -136q-136 -135 -136 -323q0 -187 136 -323t324 -136q215 0 358 174v192h-376v187h564v-723h-188v112q-137 -128 -358 -128q-266 0 -456 190q-191 191 -191 455z " />
<glyph unicode="h" horiz-adv-x="1229" d="M137 -15v1261h187v-538h581v538h187v-1261h-187v536h-581v-536h-187z" />
<glyph unicode="i" horiz-adv-x="461" d="M137 -15v1261h187v-1261h-187z" />
<glyph unicode="j" horiz-adv-x="806" d="M20 346h188q0 -79 49 -135q50 -56 127 -56q72 0 123 51q51 52 51 123v917h188v-917q0 -147 -107 -254q-106 -106 -255 -106q-155 0 -260 110q-104 110 -104 267z" />
<glyph unicode="k" horiz-adv-x="1113" d="M137 -15v1261h187v-527l528 527h264l-631 -632l631 -629h-264l-500 496l-28 -27v-469h-187z" />
<glyph unicode="l" horiz-adv-x="922" d="M137 -15v1261h187v-1075h615v-186h-802z" />
<glyph unicode="m" horiz-adv-x="1536" d="M137 -15v1261h187l444 -1012l444 1012h187v-1261h-187v793l-348 -793h-192l-348 793v-793h-187z" />
<glyph unicode="n" horiz-adv-x="1229" d="M137 -15v1261h179l589 -906v906h187v-1261h-179l-589 904v-904h-187z" />
<glyph unicode="o" horiz-adv-x="1413" d="M60 614q0 265 191 456t456 191q264 0 455 -191t191 -456q0 -264 -191 -455q-190 -190 -455 -190q-266 0 -456 190q-191 191 -191 455zM247 614q0 -187 136 -323t324 -136q187 0 323 136t136 323q0 188 -136 323q-136 136 -323 136q-188 0 -324 -136q-136 -135 -136 -323z " />
<glyph unicode="p" horiz-adv-x="1229" d="M137 -15v1261h669q148 0 255 -108q108 -107 108 -256t-108 -255q-106 -106 -255 -106h-482v-536h-187zM324 708h482q71 0 123 52t52 122t-53 123t-122 53h-482v-350z" />
<glyph unicode="q" horiz-adv-x="1413" d="M60 614q0 265 191 456t456 191q264 0 455 -191t191 -456q0 -211 -129 -385l228 -229l-131 -130l-229 227q-175 -128 -385 -128q-266 0 -456 190q-191 191 -191 455zM247 614q0 -187 136 -323t324 -136q133 0 249 75l-227 229l133 133l227 -227q77 116 77 249 q0 188 -136 323q-136 136 -323 136q-188 0 -324 -136q-136 -135 -136 -323z" />
<glyph unicode="r" horiz-adv-x="1229" d="M137 -15v1261h669q148 0 255 -108q108 -107 108 -256q0 -130 -86 -233q-86 -101 -216 -123l314 -541h-217l-309 536h-331v-536h-187zM324 708h482q71 0 123 52t52 122t-53 123t-122 53h-482v-350z" />
<glyph unicode="s" horiz-adv-x="988" d="M133 275l184 49q10 -70 53 -117q46 -52 116 -52q72 0 125 51q53 53 53 123q0 109 -137 171q-126 58 -189 87.5t-65 30.5q-136 94 -136 283q0 149 107 254q107 106 258 106q135 0 230 -87q95 -86 121 -222l-184 -47q-9 70 -53 119q-43 49 -114 49t-124 -50 q-52 -49 -52 -122q0 -111 137 -174l252 -116q137 -95 137 -282q0 -148 -108 -254q-106 -106 -258 -106q-132 0 -230 86q-98 87 -123 220z" />
<glyph unicode="t" horiz-adv-x="998" d="M20 1058v188h956v-188h-384v-1073h-188v1073h-384z" />
<glyph unicode="u" horiz-adv-x="1306" d="M137 483v763h187v-763q0 -136 95 -233q97 -95 233 -95q134 0 232 96q97 97 97 232v763h188v-763q0 -212 -152 -364q-152 -150 -365 -150t-364 150q-151 151 -151 364z" />
<glyph unicode="v" horiz-adv-x="1106" d="M-22 1246h196l379 -1036l377 1036h200l-459 -1261h-236z" />
<glyph unicode="w" horiz-adv-x="1613" d="M-22 1246h196l379 -1036l154 421l-224 615h198l125 -340l124 340h200l-224 -616l154 -420l377 1036h200l-459 -1261h-236l-136 370l-135 -370h-236z" />
<glyph unicode="x" horiz-adv-x="1058" d="M7 -15l411 629l-411 632h223l299 -459l299 459h223l-409 -632l409 -629h-223l-299 457l-299 -457h-223z" />
<glyph unicode="y" horiz-adv-x="905" d="M-68 1246h222l298 -459l299 459h224l-429 -659v-602h-188v602z" />
<glyph unicode="z" horiz-adv-x="1135" d="M46 -15l698 1073h-684v188h1031l-700 -1075h684v-186h-1029z" />
<glyph unicode="{" horiz-adv-x="853" d="M154 580v205q70 0 120 42q50 44 50 112v426q0 77 55 132q56 56 133 56h188v-205h-171v-495q0 -119 -109 -170q109 -52 109 -171v-495h171v-203h-188q-77 0 -133 56q-55 55 -55 130v427q0 68 -50 110q-49 43 -120 43z" />
<glyph unicode="|" d="M154 -186v1739h204v-1739h-204z" />
<glyph unicode="}" horiz-adv-x="853" d="M154 17h170v495q0 119 109 171q-109 49 -109 170v495h-170v205h187q76 0 132 -56t56 -132v-426q0 -68 50 -112q51 -42 121 -42v-205q-71 0 -121 -43q-50 -42 -50 -110v-427q0 -74 -56 -130t-132 -56h-187v203z" />
<glyph unicode="~" horiz-adv-x="751" d="M154 1147v119q0 7 12 33q39 83 104 83q38 0 106 -47q67 -46 104 -46q47 0 117 97v-120q0 -7 -12 -32q-39 -84 -102 -84q-39 0 -107 47t-105 47q-47 0 -117 -97z" />
<glyph unicode="&#xa1;" d="M154 -357l34 1057h136l34 -1057h-204zM154 836v205h204v-205h-204z" />
<glyph unicode="&#xa2;" horiz-adv-x="1118" d="M154 819q0 180 129 311q130 130 311 130q39 0 77 -7l46 129h109l-58 -158q61 -26 111 -70.5t92 -107.5l-143 -94q-49 75 -118 110l-184 -502q33 -10 68 -10q143 0 234 136l143 -94q-143 -213 -377 -213q-65 0 -126 19l-52 -142h-109l67 183q-101 59 -161 161 q-59 104 -59 219zM324 819q0 -133 109 -215l176 485h-5q-114 5 -197 -75t-83 -195z" />
<glyph unicode="&#xa5;" horiz-adv-x="1005" d="M-72 1382h241l333 -512l334 512h243l-442 -682h225v-205h-256v-137h256v-204h-256v-169h-205v169h-256v204h256v137h-256v205h225z" />
<glyph unicode="&#xa8;" horiz-adv-x="785" d="M154 1519v171h170v-171h-170zM461 1519v171h170v-171h-170z" />
<glyph unicode="&#xa9;" horiz-adv-x="928" d="M68 362q0 164 116 280t280 116t280 -116t116 -280q0 -163 -116 -279q-115 -115 -280 -115t-280 115q-116 116 -116 279zM164 362q0 -124 88 -212q89 -89 212 -89t212 89t89 212q0 122 -89 211t-212 89t-212 -89q-88 -88 -88 -211zM195 362q0 109 80 189t189 80 q144 0 236 -138l-80 -53q-65 96 -156 96q-70 0 -122 -52t-52 -122t52 -122t122 -52q95 0 156 94l80 -52q-92 -138 -236 -138q-109 0 -189 80q-80 82 -80 190z" />
<glyph unicode="&#xab;" horiz-adv-x="973" d="M152 683l179 358h183l-179 -358l179 -359h-183zM468 683l179 358h182l-179 -358l179 -359h-182z" />
<glyph unicode="&#xad;" horiz-adv-x="853" d="M154 597v171h546v-171h-546z" />
<glyph unicode="&#xae;" horiz-adv-x="928" d="M68 362q0 164 116 280t280 116t280 -116t116 -280q0 -163 -116 -279q-115 -115 -280 -115t-280 115q-116 116 -116 279zM164 362q0 -119 83 -208v416q-83 -88 -83 -208zM302 614h224q63 0 109 -46t46 -109q0 -51 -33 -93q-31 -41 -81 -55l99 -173q99 88 99 224 q0 122 -89 211t-212 89q-89 0 -162 -48zM340 89q57 -28 124 -28q66 0 125 28h-7l-123 215h-116v-215h-3zM343 399h183q24 0 41.5 18t17.5 42t-17.5 42t-41.5 18h-183v-120z" />
<glyph unicode="&#xaf;" horiz-adv-x="853" d="M154 1212v170h546v-170h-546z" />
<glyph unicode="&#xb0;" horiz-adv-x="597" d="M154 1237q0 60 42 102q43 43 103 43q59 0 102 -43q43 -42 43 -102q0 -59 -43 -102t-102 -43q-60 0 -103 43q-42 43 -42 102zM256 1237q0 -42 43 -42q42 0 42 42q0 43 -42 43q-43 0 -43 -43z" />
<glyph unicode="&#xb1;" horiz-adv-x="853" d="M154 -15v169h546v-169h-546zM154 597v171h187v188h171v-188h188v-171h-188v-187h-171v187h-187z" />
<glyph unicode="&#xb4;" horiz-adv-x="683" d="M130 1519l205 205h233l-307 -205h-131z" />
<glyph unicode="&#xb6;" horiz-adv-x="1323" d="M68 981q0 164 118 282q119 119 283 119h785v-204h-170v-1364h-205v1364h-137v-1364h-204v766h-69q-165 0 -283 118t-118 283z" />
<glyph unicode="&#xbb;" horiz-adv-x="973" d="M143 324l180 359l-180 358h183l179 -358l-179 -359h-183zM459 324l179 359l-179 358h183l179 -358l-179 -359h-183z" />
<glyph unicode="&#xbf;" horiz-adv-x="1097" d="M154 39q0 155 80 249q67 80 223 144q26 10 51.5 19.5t51.5 19.5q30 11 54 23.5t41 26.5q57 40 72 87q13 34 12 109h205v-41q0 -207 -152 -312l-140 -64l-140 -64q-152 -72 -152 -197q0 -78 59 -134q58 -57 139 -57q78 0 128 53q49 52 60 131l201 -49q-29 -150 -135 -244 q-105 -96 -254 -96q-164 0 -285 116q-119 116 -119 280zM739 853v205h205v-205h-205z" />
<glyph unicode="&#xc0;" horiz-adv-x="1229" d="M-22 -15l507 1397h259l509 -1397h-219l-94 254h-653l-94 -254h-215zM302 1724h234l205 -205h-131zM360 444h507l-253 694z" />
<glyph unicode="&#xc1;" horiz-adv-x="1229" d="M-22 -15l507 1397h259l509 -1397h-219l-94 254h-653l-94 -254h-215zM360 444h507l-253 694zM488 1519l205 205h233l-307 -205h-131z" />
<glyph unicode="&#xc2;" horiz-adv-x="1229" d="M-22 -15l507 1397h259l509 -1397h-219l-94 254h-653l-94 -254h-215zM318 1519l205 205h184l205 -205h-132l-165 111l-166 -111h-131zM360 444h507l-253 694z" />
<glyph unicode="&#xc3;" horiz-adv-x="1229" d="M-22 -15l507 1397h259l509 -1397h-219l-94 254h-653l-94 -254h-215zM360 444h507l-253 694zM393 1430v120q0 6 12 32q39 84 104 84q38 0 106 -47t104 -47q47 0 117 97v-119q0 -8 -12 -33q-39 -83 -102 -83q-40 0 -107 46q-68 47 -105 47q-47 0 -117 -97z" />
<glyph unicode="&#xc4;" horiz-adv-x="1229" d="M-22 -15l507 1397h259l509 -1397h-219l-94 254h-653l-94 -254h-215zM360 444h507l-253 694zM376 1519v171h170v-171h-170zM683 1519v171h170v-171h-170z" />
<glyph unicode="&#xc5;" horiz-adv-x="1229" d="M-22 -15l507 1397h259l509 -1397h-219l-94 254h-653l-94 -254h-215zM360 444h507l-253 694zM470 1579q0 58 42 102q43 43 103 43q59 0 102 -43t43 -102q0 -60 -43 -103q-44 -42 -102 -42q-60 0 -103 42q-42 43 -42 103zM572 1579q0 -43 43 -43q42 0 42 43q0 42 -42 42 q-43 0 -43 -42z" />
<glyph unicode="&#xc6;" horiz-adv-x="1901" d="M-114 -15l899 1397h963v-204h-683v-376h512v-205h-512v-409h683v-203h-888v254h-573l-166 -254h-235zM418 444h442v686z" />
<glyph unicode="&#xc8;" horiz-adv-x="1195" d="M154 -15v1397h887v-204h-683v-376h512v-205h-512v-409h683v-203h-887zM285 1724h234l205 -205h-131z" />
<glyph unicode="&#xc9;" horiz-adv-x="1195" d="M154 -15v1397h887v-204h-683v-376h512v-205h-512v-409h683v-203h-887zM471 1519l205 205h233l-307 -205h-131z" />
<glyph unicode="&#xca;" horiz-adv-x="1195" d="M154 -15v1397h887v-204h-683v-376h512v-205h-512v-409h683v-203h-887zM301 1519l205 205h184l205 -205h-132l-165 111l-166 -111h-131z" />
<glyph unicode="&#xcb;" horiz-adv-x="1195" d="M154 -15v1397h887v-204h-683v-376h512v-205h-512v-409h683v-203h-887zM359 1519v171h170v-171h-170zM666 1519v171h170v-171h-170z" />
<glyph unicode="&#xcc;" d="M-55 1724h234l205 -205h-131zM154 -15v1397h204v-1397h-204z" />
<glyph unicode="&#xcd;" d="M130 1519l205 205h233l-307 -205h-131zM154 -15v1397h204v-1397h-204z" />
<glyph unicode="&#xce;" d="M-39 1519l205 205h184l205 -205h-132l-165 111l-166 -111h-131zM154 -15v1397h204v-1397h-204z" />
<glyph unicode="&#xcf;" d="M19 1519v171h170v-171h-170zM154 -15v1397h204v-1397h-204zM326 1519v171h170v-171h-170z" />
<glyph unicode="&#xd1;" horiz-adv-x="1365" d="M154 -15v1397h196l657 -1010v1010h205v-1397h-197l-657 1008v-1008h-204zM461 1430v120q0 6 12 32q39 84 104 84q38 0 106 -47t104 -47q47 0 117 97v-119q0 -8 -12 -33q-39 -83 -102 -83q-40 0 -107 46q-68 47 -105 47q-47 0 -117 -97z" />
<glyph unicode="&#xd2;" horiz-adv-x="1570" d="M68 683q0 292 212 504t505 212t505 -212t212 -504q0 -293 -212 -505q-212 -210 -505 -210q-294 0 -505 210q-212 212 -212 505zM273 683q0 -210 151 -361t361 -151t361 151t151 361t-151 361t-361 151t-361 -151t-151 -361zM472 1724h234l205 -205h-131z" />
<glyph unicode="&#xd3;" horiz-adv-x="1570" d="M68 683q0 292 212 504t505 212t505 -212t212 -504q0 -293 -212 -505q-212 -210 -505 -210q-294 0 -505 210q-212 212 -212 505zM273 683q0 -210 151 -361t361 -151t361 151t151 361t-151 361t-361 151t-361 -151t-151 -361zM659 1519l205 205h233l-307 -205h-131z" />
<glyph unicode="&#xd4;" horiz-adv-x="1570" d="M68 683q0 292 212 504t505 212t505 -212t212 -504q0 -293 -212 -505q-212 -210 -505 -210q-294 0 -505 210q-212 212 -212 505zM273 683q0 -210 151 -361t361 -151t361 151t151 361t-151 361t-361 151t-361 -151t-151 -361zM488 1519l205 205h184l205 -205h-132l-165 111 l-166 -111h-131z" />
<glyph unicode="&#xd5;" horiz-adv-x="1570" d="M68 683q0 292 212 504t505 212t505 -212t212 -504q0 -293 -212 -505q-212 -210 -505 -210q-294 0 -505 210q-212 212 -212 505zM273 683q0 -210 151 -361t361 -151t361 151t151 361t-151 361t-361 151t-361 -151t-151 -361zM564 1430v120q0 6 12 32q39 84 104 84 q38 0 106 -47t104 -47q47 0 117 97v-119q0 -8 -12 -33q-39 -83 -102 -83q-40 0 -107 46q-68 47 -105 47q-47 0 -117 -97z" />
<glyph unicode="&#xd6;" horiz-adv-x="1570" d="M68 683q0 292 212 504t505 212t505 -212t212 -504q0 -293 -212 -505q-212 -210 -505 -210q-294 0 -505 210q-212 212 -212 505zM273 683q0 -210 151 -361t361 -151t361 151t151 361t-151 361t-361 151t-361 -151t-151 -361zM547 1519v171h170v-171h-170zM854 1519v171 h170v-171h-170z" />
<glyph unicode="&#xd7;" horiz-adv-x="853" d="M174 550l131 133l-131 133l120 119l133 -131l133 131l119 -119l-131 -133l131 -133l-119 -120l-133 131l-133 -131z" />
<glyph unicode="&#xd8;" horiz-adv-x="1570" d="M68 683q0 292 212 504t505 212q159 0 300 -66l35 49h244l-108 -162q246 -216 246 -537q0 -293 -212 -505q-212 -210 -505 -210q-160 0 -300 64l-34 -47h-244l107 160q-246 217 -246 538zM273 683q0 -211 154 -362l546 836q-96 38 -188 38q-210 0 -361 -151t-151 -361z M597 208q93 -37 188 -37q210 0 361 151t151 361t-154 361z" />
<glyph unicode="&#xd9;" horiz-adv-x="1451" d="M154 538v844h204v-844q0 -151 107 -260q109 -107 260 -107t259 108t108 259v844h205v-844q0 -237 -168 -403q-169 -167 -404 -167q-234 0 -403 167q-168 166 -168 403zM413 1724h234l205 -205h-131z" />
<glyph unicode="&#xda;" horiz-adv-x="1451" d="M154 538v844h204v-844q0 -151 107 -260q109 -107 260 -107t259 108t108 259v844h205v-844q0 -237 -168 -403q-169 -167 -404 -167q-234 0 -403 167q-168 166 -168 403zM599 1519l205 205h233l-307 -205h-131z" />
<glyph unicode="&#xdb;" horiz-adv-x="1451" d="M154 538v844h204v-844q0 -151 107 -260q109 -107 260 -107t259 108t108 259v844h205v-844q0 -237 -168 -403q-169 -167 -404 -167q-234 0 -403 167q-168 166 -168 403zM429 1519l205 205h184l205 -205h-132l-165 111l-166 -111h-131z" />
<glyph unicode="&#xdc;" horiz-adv-x="1451" d="M154 538v844h204v-844q0 -151 107 -260q109 -107 260 -107t259 108t108 259v844h205v-844q0 -237 -168 -403q-169 -167 -404 -167q-234 0 -403 167q-168 166 -168 403zM487 1519v171h170v-171h-170zM794 1519v171h170v-171h-170z" />
<glyph unicode="&#xdd;" horiz-adv-x="1005" d="M-72 1382h241l333 -512l334 512h243l-473 -730v-667h-205v667zM376 1519l205 205h233l-307 -205h-131z" />
<glyph unicode="&#xe0;" horiz-adv-x="1106" d="M-20 -14l457 1258h232l459 -1258h-198l-83 229h-589l-84 -229h-194zM271 1551h212l184 -184h-119zM324 399h456l-227 625z" />
<glyph unicode="&#xe1;" horiz-adv-x="1106" d="M-20 -14l457 1258h232l459 -1258h-198l-83 229h-589l-84 -229h-194zM324 399h456l-227 625zM439 1367l184 184h212l-277 -184h-119z" />
<glyph unicode="&#xe2;" horiz-adv-x="1106" d="M-20 -14l457 1258h232l459 -1258h-198l-83 229h-589l-84 -229h-194zM285 1367l184 184h168l184 -184h-120l-148 99l-149 -99h-119zM324 399h456l-227 625z" />
<glyph unicode="&#xe3;" horiz-adv-x="1106" d="M-20 -14l457 1258h232l459 -1258h-198l-83 229h-589l-84 -229h-194zM324 399h456l-227 625zM353 1287v107q0 5 11 29q34 75 93 75q36 0 96 -42q62 -41 94 -41q41 0 106 87v-108q0 -5 -11 -29q-35 -75 -92 -75q-36 0 -97 42q-60 42 -94 42q-42 0 -106 -87z" />
<glyph unicode="&#xe4;" horiz-adv-x="1106" d="M-20 -14l457 1258h232l459 -1258h-198l-83 229h-589l-84 -229h-194zM324 399h456l-227 625zM338 1367v154h154v-154h-154zM614 1367v154h154v-154h-154z" />
<glyph unicode="&#xe5;" horiz-adv-x="1106" d="M-20 -14l457 1258h232l459 -1258h-198l-83 229h-589l-84 -229h-194zM324 399h456l-227 625zM422 1420q0 55 38 93t93 38q54 0 92 -38t38 -93q0 -52 -38 -92q-38 -38 -92 -38q-55 0 -93 38q-38 40 -38 92zM514 1420q0 -38 39 -38q38 0 38 38q0 39 -38 39q-39 0 -39 -39z " />
<glyph unicode="&#xe6;" horiz-adv-x="1712" d="M-106 -15l811 1261h870v-188h-614v-334h461v-188h-461v-365h614v-186h-802v228h-514l-148 -228h-217zM381 401h392v609z" />
<glyph unicode="&#xe8;" horiz-adv-x="1075" d="M138 -14v1258h799v-184h-614v-338h460v-184h-460v-369h614v-183h-799zM256 1551h212l184 -184h-120z" />
<glyph unicode="&#xe9;" horiz-adv-x="1075" d="M138 -14v1258h799v-184h-614v-338h460v-184h-460v-369h614v-183h-799zM423 1367l185 184h211l-276 -184h-120z" />
<glyph unicode="&#xea;" horiz-adv-x="1075" d="M138 -14v1258h799v-184h-614v-338h460v-184h-460v-369h614v-183h-799zM270 1367l184 184h167l185 -184h-120l-148 99l-149 -99h-119z" />
<glyph unicode="&#xeb;" horiz-adv-x="1075" d="M138 -14v1258h799v-184h-614v-338h460v-184h-460v-369h614v-183h-799zM323 1367v154h153v-154h-153zM599 1367v154h154v-154h-154z" />
<glyph unicode="&#xec;" horiz-adv-x="461" d="M-49 1551h209l185 -184h-120zM138 -14v1258h185v-1258h-185z" />
<glyph unicode="&#xed;" horiz-adv-x="461" d="M116 1367l184 184h212l-276 -184h-120zM138 -14v1258h185v-1258h-185z" />
<glyph unicode="&#xee;" horiz-adv-x="461" d="M-36 1367l183 184h167l184 -184h-119l-149 99l-148 -99h-118zM138 -14v1258h185v-1258h-185z" />
<glyph unicode="&#xef;" horiz-adv-x="461" d="M15 1367v154h154v-154h-154zM138 -14v1258h185v-1258h-185zM292 1367v154h153v-154h-153z" />
<glyph unicode="&#xf1;" horiz-adv-x="1229" d="M138 -14v1258h176l592 -909v909h185v-1258h-178l-590 908v-908h-185zM415 1287v107q0 8 10 29q36 75 94 75q36 0 96 -42q62 -41 93 -41q41 0 106 87v-108q0 -8 -10 -29q-36 -75 -92 -75q-36 0 -97 42q-60 42 -94 42q-42 0 -106 -87z" />
<glyph unicode="&#xf2;" horiz-adv-x="1413" d="M61 614q0 265 190 455q191 191 456 191q263 0 454 -191t191 -455q0 -263 -191 -454q-191 -189 -454 -189q-266 0 -456 189q-190 190 -190 454zM246 614q0 -189 135 -325q136 -135 326 -135q189 0 324 135q136 136 136 325q0 190 -136 325q-135 136 -324 136 q-190 0 -326 -136q-135 -135 -135 -325zM425 1551h212l184 -184h-120z" />
<glyph unicode="&#xf3;" horiz-adv-x="1413" d="M61 614q0 265 190 455q191 191 456 191q263 0 454 -191t191 -455q0 -263 -191 -454q-191 -189 -454 -189q-266 0 -456 189q-190 190 -190 454zM246 614q0 -189 135 -325q136 -135 326 -135q189 0 324 135q136 136 136 325q0 190 -136 325q-135 136 -324 136 q-190 0 -326 -136q-135 -135 -135 -325zM592 1367l185 184h211l-276 -184h-120z" />
<glyph unicode="&#xf4;" horiz-adv-x="1413" d="M61 614q0 265 190 455q191 191 456 191q263 0 454 -191t191 -455q0 -263 -191 -454q-191 -189 -454 -189q-266 0 -456 189q-190 190 -190 454zM246 614q0 -189 135 -325q136 -135 326 -135q189 0 324 135q136 136 136 325q0 190 -136 325q-135 136 -324 136 q-190 0 -326 -136q-135 -135 -135 -325zM439 1367l184 184h167l185 -184h-120l-148 99l-149 -99h-119z" />
<glyph unicode="&#xf5;" horiz-adv-x="1413" d="M61 614q0 265 190 455q191 191 456 191q263 0 454 -191t191 -455q0 -263 -191 -454q-191 -189 -454 -189q-266 0 -456 189q-190 190 -190 454zM246 614q0 -189 135 -325q136 -135 326 -135q189 0 324 135q136 136 136 325q0 190 -136 325q-135 136 -324 136 q-190 0 -326 -136q-135 -135 -135 -325zM507 1287v107q0 8 10 29q36 75 94 75q36 0 96 -42q62 -41 93 -41q41 0 106 87v-108q0 -8 -10 -29q-36 -75 -92 -75q-36 0 -97 42q-60 42 -94 42q-42 0 -106 -87z" />
<glyph unicode="&#xf6;" horiz-adv-x="1413" d="M61 614q0 265 190 455q191 191 456 191q263 0 454 -191t191 -455q0 -263 -191 -454q-191 -189 -454 -189q-266 0 -456 189q-190 190 -190 454zM246 614q0 -189 135 -325q136 -135 326 -135q189 0 324 135q136 136 136 325q0 190 -136 325q-135 136 -324 136 q-190 0 -326 -136q-135 -135 -135 -325zM492 1367v154h153v-154h-153zM768 1367v154h154v-154h-154z" />
<glyph unicode="&#xf7;" horiz-adv-x="853" d="M154 597v171h546v-171h-546zM341 375v171h171v-171h-171zM341 819v171h171v-171h-171z" />
<glyph unicode="&#xf8;" horiz-adv-x="1413" d="M60 614q0 265 191 456t456 191q141 0 269 -60l29 45h226l-98 -147q220 -193 220 -485q0 -264 -191 -455q-190 -190 -455 -190q-144 0 -270 58l-31 -42h-223l97 145q-220 193 -220 484zM247 614q0 -187 137 -324l490 751q-84 32 -167 32q-188 0 -324 -136 q-136 -135 -136 -323zM539 188q82 -33 168 -33q187 0 323 136t136 323q0 188 -137 325z" />
<glyph unicode="&#xf9;" horiz-adv-x="1306" d="M138 483v761h185v-761q0 -137 96 -233t233 -96q136 0 233 97q98 98 98 232v761h184v-761q0 -212 -151 -362q-152 -150 -364 -150t-363 150t-151 362zM372 1551h210l184 -184h-117z" />
<glyph unicode="&#xfa;" horiz-adv-x="1306" d="M138 483v761h185v-761q0 -137 96 -233t233 -96q136 0 233 97q98 98 98 232v761h184v-761q0 -212 -151 -362q-152 -150 -364 -150t-363 150t-151 362zM539 1367l185 184h210l-277 -184h-118z" />
<glyph unicode="&#xfb;" horiz-adv-x="1306" d="M138 483v761h185v-761q0 -137 96 -233t233 -96q136 0 233 97q98 98 98 232v761h184v-761q0 -212 -151 -362q-152 -150 -364 -150t-363 150t-151 362zM386 1367l184 184h166l184 -184h-118l-150 99l-149 -99h-117z" />
<glyph unicode="&#xfc;" horiz-adv-x="1306" d="M138 483v761h185v-761q0 -137 96 -233t233 -96q136 0 233 97q98 98 98 232v761h184v-761q0 -212 -151 -362q-152 -150 -364 -150t-363 150t-151 362zM437 1367v154h154v-154h-154zM713 1367v154h154v-154h-154z" />
<glyph unicode="&#xfd;" horiz-adv-x="905" d="M-65 1244h217l300 -461l301 461h218l-427 -657v-601h-184v601zM338 1367l184 184h212l-277 -184h-119z" />
<glyph unicode="&#xff;" horiz-adv-x="905" d="M-65 1244h217l300 -461l301 461h218l-427 -657v-601h-184v601zM237 1367v154h154v-154h-154zM514 1367v154h153v-154h-153z" />
<glyph unicode="&#x152;" horiz-adv-x="2338" d="M68 683q0 292 212 504t505 212q300 0 512 -216v199h888v-204h-683v-376h512v-205h-512v-409h683v-203h-888v198q-212 -215 -512 -215q-294 0 -505 210q-212 212 -212 505zM273 683q0 -210 151 -361t361 -151t361 151t151 361t-151 361t-361 151t-361 -151t-151 -361z" />
<glyph unicode="&#x153;" horiz-adv-x="2104" d="M60 614q0 265 191 456t456 191q269 0 459 -193v178h802v-188h-615v-334h461v-188h-461v-365h615v-186h-802v175q-191 -191 -459 -191q-266 0 -456 190q-191 191 -191 455zM247 614q0 -187 136 -323t324 -136q187 0 323 136t136 323q0 188 -136 323q-136 136 -323 136 q-188 0 -324 -136q-136 -135 -136 -323z" />
<glyph unicode="&#x178;" horiz-adv-x="1005" d="M-72 1382h241l333 -512l334 512h243l-473 -730v-667h-205v667zM263 1519v171h170v-171h-170zM570 1519v171h170v-171h-170z" />
<glyph unicode="&#x2c6;" horiz-adv-x="853" d="M130 1519l205 205h184l205 -205h-132l-165 111l-166 -111h-131z" />
<glyph unicode="&#x2dc;" horiz-adv-x="751" d="M154 1430v120q0 6 12 32q39 84 104 84q38 0 106 -47t104 -47q47 0 117 97v-119q0 -8 -12 -33q-39 -83 -102 -83q-40 0 -107 46q-68 47 -105 47q-47 0 -117 -97z" />
<glyph unicode="&#x2000;" horiz-adv-x="862" />
<glyph unicode="&#x2001;" horiz-adv-x="1724" />
<glyph unicode="&#x2002;" horiz-adv-x="862" />
<glyph unicode="&#x2003;" horiz-adv-x="1724" />
<glyph unicode="&#x2004;" horiz-adv-x="574" />
<glyph unicode="&#x2005;" horiz-adv-x="431" />
<glyph unicode="&#x2006;" horiz-adv-x="287" />
<glyph unicode="&#x2007;" horiz-adv-x="287" />
<glyph unicode="&#x2008;" horiz-adv-x="215" />
<glyph unicode="&#x2009;" horiz-adv-x="344" />
<glyph unicode="&#x200a;" horiz-adv-x="95" />
<glyph unicode="&#x2010;" horiz-adv-x="853" d="M154 597v171h546v-171h-546z" />
<glyph unicode="&#x2011;" horiz-adv-x="853" d="M154 597v171h546v-171h-546z" />
<glyph unicode="&#x2012;" horiz-adv-x="853" d="M154 597v171h546v-171h-546z" />
<glyph unicode="&#x2013;" horiz-adv-x="768" d="M154 597v171h460v-171h-460z" />
<glyph unicode="&#x2014;" horiz-adv-x="1024" d="M154 597v171h716v-171h-716z" />
<glyph unicode="&#x2018;" d="M154 1092v290h153v-68h-68v-17h119v-205h-204z" />
<glyph unicode="&#x2019;" d="M154 1178v204h204v-290h-153v69h68v17h-119z" />
<glyph unicode="&#x201a;" d="M154 -15v203h204v-289h-153v69h68v17h-119z" />
<glyph unicode="&#x201c;" horiz-adv-x="768" d="M154 1092v290h153v-68h-68v-17h119v-205h-204zM410 1092v290h153v-68h-68v-17h119v-205h-204z" />
<glyph unicode="&#x201d;" horiz-adv-x="768" d="M154 1178v204h204v-290h-153v69h68v17h-119zM410 1178v204h204v-290h-153v69h68v17h-119z" />
<glyph unicode="&#x201e;" horiz-adv-x="768" d="M154 -15v203h204v-289h-153v69h68v17h-119zM410 -15v203h204v-289h-153v69h68v17h-119z" />
<glyph unicode="&#x2022;" horiz-adv-x="853" d="M68 683q0 148 105 253t254 105q148 0 253 -105t105 -253q0 -149 -105 -254t-253 -105q-149 0 -254 105t-105 254z" />
<glyph unicode="&#x2026;" horiz-adv-x="1024" d="M154 -15v203h204v-203h-204zM410 -15v203h204v-203h-204zM666 -15v203h204v-203h-204z" />
<glyph unicode="&#x202f;" horiz-adv-x="344" />
<glyph unicode="&#x2039;" horiz-adv-x="657" d="M152 683l179 358h183l-179 -358l179 -359h-183z" />
<glyph unicode="&#x203a;" horiz-adv-x="657" d="M143 324l180 359l-180 358h183l179 -358l-179 -359h-183z" />
<glyph unicode="&#x205f;" horiz-adv-x="431" />
<glyph unicode="&#x2122;" horiz-adv-x="1031" d="M68 1287v95h461l171 -389l170 389h93v-525h-96v280l-121 -280h-92l-122 280v-280h-95v430h-120v-430h-95v430h-154z" />
<glyph unicode="&#x25fc;" horiz-adv-x="1245" d="M0 0v1245h1245v-1245h-1245z" />
</font>
</defs>
</svg>
